<?xml version="1.0" encoding="utf-8"?>
<!-- Generator: Adobe Illustrator 21.0.0, SVG Export Plug-In . SVG Version: 6.00 Build 0)  -->
<svg version="1.1" id="Layer_1" xmlns="http://www.w3.org/2000/svg" xmlns:xlink="http://www.w3.org/1999/xlink" x="0px" y="0px"
	 viewBox="0 0 384 306" style="enable-background:new 0 0 384 306;" xml:space="preserve">
<style type="text/css">
	.st0{fill:none;}
	.st1{clip-path:url(#SVGID_2_);}
	.st2{fill:#FFFFFF;}
	.st3{fill:#0054FF;}
	.st4{filter:url(#Adobe_OpacityMaskFilter);}
	.st5{clip-path:url(#SVGID_4_);fill:url(#SVGID_6_);}
	.st6{clip-path:url(#SVGID_4_);mask:url(#SVGID_5_);}
	.st7{opacity:0.15;fill:url(#SVGID_7_);}
	.st8{fill:#9357EC;}
</style>
<pattern  x="-656.7" y="-256.6" width="214" height="330.9" patternUnits="userSpaceOnUse" id="New_Pattern_3" viewBox="156.3 -632.6 214 330.9" style="overflow:visible;">
	<g>
		<rect x="156.3" y="-632.6" class="st0" width="214" height="330.9"/>
		<g>
			<defs>
				<rect id="SVGID_1_" x="156.3" y="-632.6" width="214" height="330.9"/>
			</defs>
			<clipPath id="SVGID_2_">
				<use xlink:href="#SVGID_1_"  style="overflow:visible;"/>
			</clipPath>
			<g class="st1">
				<path class="st2" d="M601.1-732.7c-33.8,0-67.7,0-101.5,0c-2.1,0-3.9-0.3-6-1.3c-4.6-2.1-9.8-1.8-14.4-0.2
					c-2.9,1-5.7,1.5-8.7,1.5c-74,0-148,0-222.1,0c-30.3,0-60.6,0-90.9,0c-2.9,0-5.7-0.5-8.6-1.5c-4.7-1.6-10.1-1.7-14.9,0.3
					c-1.9,0.8-3.7,1.2-5.6,1.2c-42.1,0-84.2,0-126.4,0c-0.7,0-1.4-0.1-2.1-0.2v15.9c41.8,0,83.5,0,125.3,0c1.9,0,3.9,0.1,5.8,0
					c2.3,0,3.1,1.1,3.1,3.6c-4.1,1-8.1,0.4-12.1,0.4c-3,0-4.8,0.9-4.6,4.2c0.1,2.9-1.5,3.6-4,3.5c-2.3-0.1-4,1-5.8,2.2
					c-18.2,12.8-30.1,30-35.5,51.5c-1.9,7.5-0.7,15.4-0.9,23.1c-0.1,2.4,0,4.8,0,7.7c2.5-1.8,2.7-4,3-6.2c1.3-8.2,0.8-16.5,3-24.6
					c5.6-20.6,17.1-36.9,34.9-48.6c1.3-0.8,2.5-2,4.4-1.9c1.7,2.8-0.4,4-2.3,5.3c-7.7,5.1-14.4,11.3-19.9,18.7
					c-10,13.4-15.2,28.5-15.5,45.2c-0.1,7.1-1.6,13.6-6.4,19.1c-2,2.2-0.9,4.5-0.7,7c8-6.3,11.9-14.5,12-24.4
					c0.1-9.5,1.7-18.6,5.2-27.3c5.5-13.6,14.3-24.6,26.3-33c3.3-2.3,6.8-3.6,11-2.8c-0.1,1.8-1.8,1.9-2.8,2.5
					c-22.9,13.6-35,33.6-35.7,60.3c-0.3,11.8-4.7,21.5-13.8,29.1c-2.8,2.4-2.8,2.4-1.5,6.9c11.9-7.8,18.8-18.5,19.9-32.6
					c0.6-7.9,1-15.8,3.5-23.4c7.8-24.7,32.9-43.9,59.6-43.2c29.8,0.8,52.7,16,61.8,42.9c2.3,6.9,3.1,14.1,3.4,21.3
					c0.8,22.1,16.9,39.1,39.1,41.3c20.2,2,39.4-12.4,44.3-33.1c0.9-3.8,0.9-7.7,1.1-11.6c1.3-33,26.6-59,59.9-61.4
					c31.7-2.3,60.8,20.2,66.7,52c1,5.3,0.9,10.9,1.5,16.3c2.4,21.7,20.9,38.3,42.4,37.9c22.1-0.4,40.4-17.7,41.6-39.9
					c0.5-9.7,1.6-19.3,5.6-28.3c6.4-14.2,16.6-24.8,30.6-31.7c2.6-1.3,4.8-2.4,3.3-5.8c-1.8-0.9-3.1,0.3-4.4,1
					c-24.7,12.5-38.4,32.5-39.7,60.3c-0.9,19.8-11.2,34-28.7,38.3c-23,5.6-45.3-10.9-46-34.7c-0.7-23.5-9.2-43.1-28.4-56.9
					c-22.1-16-46.4-18.4-70.9-6.3c-24.9,12.3-37.6,33.3-38.6,61c-0.7,17.9-11,32.2-27.3,36.6c-23.8,6.5-46.7-10.3-47.4-35.2
					c-0.4-15.1-4.3-28.8-13.2-41.1c-10.4-14.3-24.4-23.2-41.5-27.1c-1-0.2-2.1-0.4-3.1-0.6c-1.2-0.3-1.8-1.1-1.6-2.3
					c0.1-1.5,1.2-1.5,2.3-1.4c1.4,0.2,2.8,0.4,4.2,0.7c33,7.3,56.2,35.9,56.9,69.9c0.4,21.2,16.6,36.2,37,34.3
					c16.9-1.6,29.5-15.7,29.9-34c0.2-9.8,2-19.3,6-28.2c10.7-23.5,28.8-37.7,54.2-42.6c1-0.2,2.1-0.4,3.1-0.6
					c0.3-0.1,0.5-0.4,0.8-1.1c-6.6,0-13.5-1.8-19.8,1c-30.7,13.6-47.5,37.1-49.3,70.8c-0.9,16.1-8.9,26.6-22.9,29.4
					c-16.2,3.3-31.6-7.6-33.7-24c-0.9-6.6-0.4-13.4-2-20c-6.4-27.2-22.9-45.9-48.5-56.7c-4.2-1.8-8.7-0.7-13.1-0.9
					c-2.9-0.1-4.8-0.8-4.7-4.1c0.1-2.9-1.7-3.5-4.1-3.5c-4,0-8,0-12,0c-0.4-2.9,0.6-3.9,2.8-4c1.2-0.1,2.5-0.1,3.7-0.1
					c105.1,0,210.1,0,315.2,0c1.4,0,2.8,0,4.2,0.1c1.8,0.1,2.3,1.3,2.5,3.4c-3.5,1.2-7.1,0.5-10.7,0.6c-3.5,0-6.4,0.1-6.1,4.9
					c0.2,3.3-2.6,2.9-4.6,2.7c-5.8-0.4-11.1,0.9-16.1,4.3c1.2,3.4,3.1,3.8,6.1,2.4c2.7-1.3,5.6-2.3,8.5-2.9c1.8-0.4,4.6-2.4,5.3,0.7
					c0.7,2.7-2.4,2.3-4.1,3c-3.3,1.2-6.7,1.8-9.7,3.9c0.9,3.2,2.5,3.7,5.5,2.7c14.8-4.8,29.8-4.8,44.7-0.1c2.2,0.7,4,1.2,5.4-1.2
					c0.4-0.6,0.9-1.5,1.3-1.5c6.3-0.1,5.8-4.4,5.9-8.8c0.4-10,0.6-10-9.5-10c-1.4,0-2.8,0-4.2,0c-1,0-2.4,0.2-2.4-1.3
					c-0.1-1.3,0.4-2.5,2-2.6c1.2-0.1,2.5-0.1,3.7-0.1c34.5,0,69.1,0,103.6,0c0.2,0,0.4,0,0.7,0c0.1-5.2,0.1-10.4,0.2-15.6
					C603.2-732.6,602.1-732.7,601.1-732.7z"/>
				<path class="st2" d="M588.3-237.8c-0.2-13.4-0.8-26.7-2.3-40c-1.2-10.8-2.5-21.7-3.7-32.5c-2.6-23.7-4.7-47.5-4.6-71.4
					c0.1-13.8,0.8-27.9,3.1-41.6c-0.8,0.2-1.6,0.6-2.5,1.3c-1.4,1.2-2.4-1.2-3.1-2.6c-1.9-3.7-2.5-3.8-5.7-1
					c-1.6,1.4-3.1,2.8-4.8,4.1c-3.3,2.6-5.8,2.2-6.7-1.7c-0.9-3.8-3.3-5.9-6-8.1c-11.3-9.6-16.6-21.9-16.8-36.7
					c-0.5-32.6-27.3-58.8-59.8-58.9c-32.6-0.1-59.6,26.1-60,58.7c-0.3,24.1-15.6,40.8-33.9,45.8c-29.8,8.2-58.1-13.5-58.8-44.9
					c-0.6-28.2-18.9-51.3-46-58c-36.1-8.9-72.3,18.1-73.7,55.2c-0.4,10.4-2.2,20.3-8.1,29.1c-10.6,15.6-29.9,23.3-48.1,19.2
					c-19-4.3-32.6-18.9-35.7-38c-1.1-6.8-0.3-13.7-2.1-20.5c-4.8-18.9-16-32.7-33.5-41.2c-0.6-0.3-1.3-0.5-2-0.7
					c-0.3-0.1-0.7,0-1.2,0c-2,3.5,0.4,4.7,3.1,6.2c19.6,10.5,29.6,27.1,30.2,49.2c0.7,28.6,23.1,51.1,51.3,51
					c28.1-0.1,50.3-22.7,50.9-51.4c0.5-22.2,10.7-38.9,30.5-48.9c36.3-18.5,78.8,7.6,79.7,48.6c0.5,23.8,14.8,43.1,36.5,49.6
					c32.3,9.6,64.9-14.2,65.6-48.1c0.4-18.6,7.2-34.1,22.4-45.1c18-13,37.6-14.7,57.4-5c19.8,9.7,29.8,26.5,30.5,48.4
					c0.6,18.5,8,32.9,23.1,43.4c3.4,2.4,3.9,3.4,4.5,9.4c-0.8-2.2-2.5-3.4-4.4-4.6c-17.3-10.8-26.4-26.4-27-46.8
					c-0.8-25-16.1-44.6-39.2-50.2c-31.2-7.7-62,15.5-63.1,47.5c-0.3,8.7-1.4,17.2-5.1,25.2c-11.1,23.6-36.3,36.2-61.7,30.8
					c-25-5.3-42.8-27.1-43.3-53c-0.5-24.5-15.7-44.5-38.4-50.3c-32-8.2-62.4,14.8-63.9,48.8c-0.5,12-3.3,23-10.2,32.7
					c-13.7,19.3-38.2,27.6-60.9,20.7c-22.8-6.9-38.5-27.6-39-51.7c-0.4-19.1-8.2-33.9-24.2-44.4c-1.4-0.9-2.8-2.1-5-2.3
					c-1.4,2.5-0.9,4.3,1.6,5.9c14.9,9.3,22.2,22.9,22.6,40.5c0.8,31.5,23.1,52.6,47,57.8c36.5,8,70.6-18.2,73-55.9
					c0.2-3.7,0.1-7.4,0.8-11.1c4.4-23.8,25.7-39.7,50-37.6c23.1,2,41.3,21.4,41.6,45c0.3,28.8,18.4,49.8,39.9,57.4
					c38.4,13.7,78.3-13.4,80.1-54.7c0.4-9.1,2-17.8,6.8-25.7c10.7-17.6,31.7-26,51.7-20.7c19.7,5.3,33.5,22.9,34,43.5
					c0.5,24,11.1,42.1,32,54.1c2,1.2,4.3,2.1,2.2,5.5c-8.9-3.8-16.4-9.4-22.7-16.8c-10.1-11.9-15-25.7-15.4-41.2
					c-0.5-18.8-9.3-32.4-26.7-39.5c-25.8-10.7-54.5,6.7-57.5,34.5c-1,9.6-1.2,19.3-5,28.5c-11.3,27.9-40.4,44.3-70,39.2
					c-30.1-5.2-52.3-30.1-53.2-60.4c-0.4-11.7-3.2-22.2-11.2-31.1c-11.5-12.6-29.5-17.1-45.5-11.4c-16.4,5.9-27.5,21-27.9,38.7
					c-0.4,14.9-4.3,28.5-13.5,40.3c-16.3,21-43.7,29.7-69.2,22c-25.4-7.7-43.4-30.1-44.9-56.8c-0.7-11.2-2.3-21.7-9.6-30.7
					c-3-3.7-6.4-6.9-11-9.6c-1.4,2.8-1.2,4.7,1.1,6.5c10,8.1,14,18.8,14.3,31.5c0.6,29,20.7,55.1,48.3,63.5c1.8,0.6,3.7,0.9,5.7,0.7
					c9.8-1.2,19.7-1.2,29.5,0c2.4,0.3,4.5-0.3,6.7-1c27.4-9,46.5-34.3,47.3-63.1c0.4-14.2,5.2-25.9,17.4-33.7
					c12.1-7.7,25-8.2,37.7-1.5c12.7,6.7,19.4,17.7,19.7,32.1c0.7,30.8,18.5,56.2,46.6,65.9c3,1.1,6,1.5,9.3,1.1c9-1,18-1,26.9,0.1
					c2.5,0.3,4.9,0.1,7.2-0.7c27.3-8.7,46.9-34.2,47.7-62.9c0.3-11.2,2.9-21.3,11.2-29.2c11.4-10.8,24.9-13.8,39.6-8.3
					c14.9,5.7,22.9,17.2,23.9,33.1c0.5,8.5,1.2,16.9,4.2,24.9c6.6,17.9,18.6,30.9,35.7,39.2c2.3,1.1,4.3,2,4.4,5.2
					c0.1,3.8-1.3,5.5-5,6.7c-22.8,7.5-40.4,21.8-52.7,42.5c-8,13.4-12.3,28-13,43.6c-0.1,1.8-0.1,3.5-0.3,5.3
					c-0.7,6.1-5.1,10.1-10.9,10c-5.7-0.2-10.2-4.5-10.3-10.6c-0.2-8-1.1-15.8-3-23.5c-11-43.3-51.5-73.9-95.2-72.1
					c-45.8,1.9-83.3,34.3-91.4,78.8c-0.9,5-1.3,10.1-1.4,15.2c-0.1,7.5-4.5,12.3-11,12.2c-6.3-0.1-10.6-4.8-10.6-12
					c0-43.1-31.8-84.9-80.5-93.1c-36.8-6.2-75.3,11.2-95.9,43.7c-0.9,1.4-1.5,3.1-3.2,4.4c-1.4-4.4,1.2-8.5-0.5-13
					c2.9,0.2,5.8,0.7,6.3-2.9c-1.2-2.7-7.2-1.3-5.8-6.4c4-1.5,8.2,5.8,12.2-0.7c-3.1-2.3-6.5-3.2-9.7-4.4c-1.5-0.6-3.3-1.1-2.7-3.2
					c0.8-2.6,2.7-0.9,3.9-0.5c3,1,6,2.1,8.8,3.5c2.7,1.4,4.6,1.3,6.3-1.8c-3.8-3.2-8.6-4.5-13.1-6.3c-1.3-0.5-2.7-0.9-4-1.3
					c-1.3-0.4-2.2-1.2-1.8-2.7c0.5-1.8,1.9-1.3,3-1c5.8,1.6,11.4,3.7,16.7,6.6c2.8,1.6,4.8,1.8,6.9-1.6c-7.1-4.6-14.9-7.7-23-9.9
					c-2.4-0.7-4.3-1.5-4-4.5c0.2-1.7,0.5-3,2.3-3.7c1.4-0.6,3.1-0.8,4.1-2.3c-0.5-3.4-3-3.4-6.1-2.8c1.3-4.4-1.2-8.4-0.1-12.5
					c2.1-0.1,2.3,1.6,2.9,2.7c7,11.2,15.8,20.7,26.6,28.4c2.5,1.8,4.4,1.8,6.4-0.7c-0.4-1.7-2-2.2-3.2-3
					c-14.5-10.2-25-23.7-32.1-39.8c-0.7-1.5-0.8-3-0.9-4.6c-0.1-1.6-0.1-3.1-0.3-5.4c-1.9,1.6-3.7,2.1-5.5,2.5
					c-6.8,1.6-12.9,4.6-18,9.5c-2.1,2.1-4.4,3.2-7.2,3.4c-0.5,4.2-1,8.4-1.4,12.6c-6,57.7-7.1,115.8-7.1,173.7
					c0,29.2,0.3,58.4,0.3,87.6c0,19.3-0.5,38.5,0.2,57.8c0.8,19.7,2.7,40,9.7,58.6c3.1,8.1,7.4,15.7,13.4,22
					c4.8,4.9,11.2,7.9,17.7,9.9c16.8,5.2,35.2,5,52.6,4.4C144.9-1,163.4-3,182-4.4c22.1-1.7,44.4-1.2,66.6-2.5
					c28.8-1.7,57.6-4.7,86.3-7.8c28.7-3.1,57.4-6.2,86.3-8.1c24.7-1.7,49.7-3.4,74.3,0.1c10.8,1.5,21.5,3.4,32.4,4.2
					c8.9,0.7,18.9,1.2,27.4-2.2c14.7-6,22.9-21.7,27.1-36.1c4.9-16.5,6.1-34.1,6.2-51.2c0.1-14.7-1.6-29.4-1.6-44.2
					C587-180.8,588.7-209.3,588.3-237.8z M553.2-364.6c-6.4,3-12.4,6.7-17.6,11.5c-14.5,13.5-22.3,30-22.9,49.9
					c-0.6,23.2-17.3,39.6-39.3,38.6c-19.2-0.8-34.8-16.2-35.3-35.4c-0.5-22.4-8.3-41.5-26.1-55.4c-22.2-17.4-47-20.6-72.5-8.5
					c-25.5,12.1-38.4,33.3-39.4,61.5c-0.5,13.7-5.8,24.6-17.4,32c-24.7,15.8-56.4-1.3-57.3-30.9c-0.5-15.5-4.6-29.5-13.9-41.9
					c-17.6-23.5-48.1-33.2-75.9-24.3c-28,9-47.3,34.5-47.8,63.8c-0.2,9.9-2.8,18.8-9.2,26.3c-1.6,1.8-3.1,3.8-5.7,4.8
					c-1.4-2.4-0.7-4,1-5.7c7.1-7.2,9.9-15.9,10-25.9c0.5-28.9,19-55.1,46.2-65.6c27.3-10.6,58.8-3.8,78.9,17.3
					c13.6,14.3,20.2,31.4,20.5,51.2c0.2,16.3,12,29.6,28.1,32.4c15.2,2.6,30.6-6.3,36.4-21c1.7-4.3,2.2-8.9,2.4-13.5
					c0.9-36.2,27.3-65.9,62.8-70.7c35.6-4.8,69.1,16.7,79.6,51.2c2.2,7.1,2.9,14.4,3.1,21.9c0.3,13.9,9.3,25.9,22.3,30.5
					c12.9,4.5,27,0.9,36.1-9.4c5.8-6.6,8.2-14.5,8.5-23.3c1.1-29.4,15-50.7,41-64.3c1.8-1,3.7-2.1,5.9-2.2
					C557.6-366.5,555.4-365.6,553.2-364.6z M553-354.6c-9.2,5-16.5,11.9-22.2,20.7c-6.3,9.9-9.1,20.8-9.5,32.6
					c-0.6,19.5-9.7,33.9-27.4,41.6c-17.9,7.8-34.9,5-49.7-8c-9.6-8.4-14.5-19.4-15-32.1c-0.3-7.2-0.9-14.4-3.3-21.3
					c-9.6-27.4-37.3-44.5-65.1-40.2c-29.7,4.6-50.9,28.7-51.7,58.7c-0.5,20.9-11.8,37.4-30.2,44.2c-29.6,10.8-61.2-10.1-61.9-41.7
					c-0.7-32.5-21.6-52.4-42.3-59c-35.1-11.1-72.5,12.5-77.3,49c-0.6,4.5-0.6,9.1-1.1,13.7c-1.8,15.4-9.7,26.7-23.1,34.9
					c-1.6-3.2-0.4-4.5,1.3-5.7c12.3-8.9,18-21.1,18.3-36.2c0.8-36,30.6-63.4,65.9-62.4c33.3,1,61.5,27.6,62,64.3
					c0.3,20.2,13.6,36.3,32.8,40.8c24.6,5.8,49.3-12.1,51.3-37.3c0.7-9.5,1.3-18.9,5-27.9c10.7-26.3,37.9-42.8,65.9-39.6
					c28.8,3.3,51.7,24.6,56.4,52.8c0.9,5.2,0.8,10.5,1.4,15.8c2.3,21.4,20.8,37.6,42.3,37.3c21.8-0.3,40.2-17.1,41.5-38.7
					c0.7-12.5,2.4-24.5,8.8-35.5c6.9-12,18.9-22.6,29.7-26.1C557.7-356.7,555.1-355.7,553-354.6z M75.9-247.6
					c9.7-4.7,17.8-11.4,23.9-20.3c7.1-10.3,10.4-21.7,10.6-34.3c0.6-34.2,35.7-56.2,66.2-41.3c16.4,8,25.5,21.6,26,39.9
					c0.7,21.8,8.8,39.5,27.1,51.5c19.6,12.9,40.5,14,61.2,3c20.4-10.9,31.2-28.5,31.8-51.8c0.7-27.3,20.7-47.5,47.3-47.1
					c25.4,0.3,44.7,20.4,45.3,46.8c0.7,29.2,20.7,52.9,49.5,58.3c31.6,6,63.4-15.7,69.4-47.3c0.7-3.8,1.1-7.6,1.2-11.5
					c0.3-14.5,5.8-26.7,17-36c0.9-0.8,1.8-1.7,3.6-1.9c1.5,2.8-0.3,4.3-2,5.9c-9.9,8.9-14.5,20-14.7,33.2
					c-0.4,31.9-25.2,59-56.7,62.2c-33,3.3-62.7-17.8-69.6-49.5c-1-4.5-1.4-9-1.5-13.6c-0.5-24-18.9-42.6-42.1-42.7
					c-23.5-0.1-42,18.5-42.5,42.9c-0.6,29.9-20.5,54.9-49.2,61.7c-28.7,6.8-58.1-6.8-71.7-33.1c-4.7-9.1-6.8-18.7-6.9-29
					c-0.4-25.1-20.8-44-45.6-42.3c-19.6,1.3-36.3,17.2-38.5,36.7c-0.7,6.1-0.4,12.3-1.8,18.4c-4.9,21.6-17.5,36.9-37.7,45.9
					c-0.5,0.2-1,0.3-1.5,0.5c-0.2,0-0.3,0-0.7-0.1C71-245.8,73.8-246.6,75.9-247.6z M553-344.3c-10.6,7.3-17.6,17.1-21,29.5
					c-1.3,4.6-1.5,9.4-1.6,14.1c-0.5,25.9-19.7,48.4-44.9,52.9c-26.2,4.7-51.4-9-61.3-33.3c-2.8-6.9-3.9-14.2-4.1-21.7
					c-0.5-23.9-17.1-44.1-40.4-49.2c-22.6-5-45.9,6.3-56.5,27.5c-3.7,7.4-5.2,15.2-5.3,23.5c-0.5,24.9-17.2,46.1-41,52.3
					c-35,9.1-68.7-16.6-69.3-52.7c-0.4-27.3-19.4-48.3-46.5-51.4c-28.1-3.2-54.9,20.1-55.6,48.4c-0.2,10.6-2.1,20.6-7.5,29.9
					C92.3-264.2,84-256.7,73-251.6c-1.8-4.3,1.2-5,3.2-6.2c12-7.3,19.9-17.6,23.6-31.2c1.3-4.6,1.6-9.3,1.7-14.1
					c0.6-27.2,21-50.1,47.4-53.3c28.3-3.5,53.5,13.2,60.9,40.2c1.9,6.7,1.5,13.6,2.3,20.4c3,24.9,23.9,44.2,48.9,45
					c25.1,0.8,47.3-16.9,52-41.6c0.7-3.6,1-7.3,1.1-11c0.7-29.4,23.5-52.3,53.3-53.7c27.8-1.3,52.9,20.1,56.3,48.3
					c0.8,6.4,0.3,13,2,19.4c6.3,23.4,27.2,39.3,51.2,38.6c23.5-0.7,43.9-18,48.6-41.3c1.5-7.3,0.6-14.8,2.3-22
					c3.6-15.2,12-26.8,25.2-35c0.6-0.4,1.2-0.7,1.9-0.9c0.3-0.1,0.7,0,1.1,0.1C557.7-346.6,554.9-345.6,553-344.3z M73.9-339.1
					c17.5-35.3,46-54,85.3-53c38,1,65,20.5,80.8,55.1c5.1,11.2,7,23.2,7.2,35.5c0.1,6.9,4.6,12.6,11,14.6c6.3,2,13.3-0.5,17.3-6.1
					c2-2.8,2.7-6,2.8-9.5c1.2-53.3,44.2-92.9,97.4-89.8c43.1,2.6,79.6,38.1,83.3,81c0.3,3.2,0.6,6.3,0.7,9.5
					c0.4,8.9,6.9,15.4,15.5,15.4c8.5,0,15.3-6.5,15.5-15.4c0.3-11.6,2.1-22.8,6.5-33.5c10.3-25.2,28.3-42.5,53.8-52
					c0.2-0.1,0.3-0.2,0.5-0.2c1.6-0.2,3.6-2.2,4.6,0.1c1.2,2.7-1.6,3-3.3,3.6c-27.5,10.4-45.8,29.6-54.6,57.7
					c-2.5,7.9-3.4,16.2-3.5,24.5c-0.1,8.1-4.1,14.2-11.5,17.5c-7.2,3.2-14.2,2.3-20.4-2.7c-5-4-7-9.4-7.2-15.8
					c-0.7-27.1-11.3-49.5-32.3-66.7c-49.7-40.8-126.3-13.4-139.1,49.6c-1.2,5.7-1.8,11.5-1.9,17.3c-0.4,12.1-8.5,20.1-20,19.9
					c-11.1-0.2-18.8-8.5-19-20.4c-0.7-43.2-31.8-78.3-75.2-85c-40.1-6.2-80.3,19-93.8,58.7c-0.4,1.2-0.1,2.9-2.2,3.7
					C71.8-330.2,71.7-334.6,73.9-339.1z M72.7-291.9c2-4.3,2.3-8.8,2.4-13.4c1.2-39.3,31.8-72.8,70.7-77.5
					c44.8-5.4,83.9,23.8,91.4,68.1c0.8,4.5,1,9.1,1.2,13.7c0.6,13.1,10.8,23.3,23.7,23.7c12.5,0.4,23.7-9.3,24.8-22
					c0.8-9.3,1.3-18.6,4.1-27.6c10.9-34.7,45.1-58.4,81.7-56.6c37.3,1.8,69.2,29,76.2,65c1.1,5.7,1.4,11.5,1.7,17.3
					c0.6,11.6,8.3,20.8,19,23.2c10.5,2.4,21.2-2.3,26.7-11.7c2.4-4.1,3.1-8.5,3.3-13.1c1.7-34.7,18.2-59.6,49.8-74.3
					c1.9-0.9,3.8-1.9,6.3-1.9c1.4,2.9-0.2,3.8-2.2,4.6c-4.8,1.9-9.4,4.1-13.6,6.9c-21.9,14.6-34.2,34.9-36,61.4
					c-0.2,3.7-0.3,7.4-1.1,11c-2.8,12.8-15.2,22.2-28.3,21.7c-14.1-0.5-25.4-10.5-27.3-24.1c-1.1-8-0.9-16.1-3-24.1
					c-9.8-36.5-45.5-61.8-81.9-57.8c-39.8,4.4-69.1,35-71,74.1c-0.2,4.9-0.3,9.8-2.3,14.5c-5.1,11.8-17.1,18.7-29.9,17
					c-12.9-1.7-22.9-11.3-24.4-24.1c-1.1-9.3-1.1-18.6-4-27.6c-10.9-33.7-43.6-56.4-78.5-54.2c-36.2,2.3-65.8,28.7-72.2,64.1
					c-0.8,4.7-1.1,9.4-1.3,14.2c-0.2,5.9-1.6,11.3-6,16.3C71.7-287.6,71.7-289.9,72.7-291.9z M103.8-55.8c-3.7,1.6-6.6-3-9.9-1.5
					c-3.3,1.5-6.4,2-10.5,1.1c2.5-2.3,5.6-2.5,7.7-4.9c-1.6-3.1-3.5-3.2-6.2-1.8c-3.7,1.9-7.6,3.6-12,4.3c-1.7-4.5,2.1-4.4,4.3-5.4
					c2.4-1.1,4.9-1.8,7-3.4c-2.2-3.2-2.2-3.2-11-0.7c-0.8-3.1-0.8-3.1,5-6.4c-0.6-3.1-2.5-3.9-5.9-2.8c0.8-4.4-0.8-8.4,0.4-13.6
					c8.5,14.3,18.8,25.6,32,34.1C104.3-56.3,104.1-56,103.8-55.8z M112.2-57.9c-17.8-10.3-30.7-24.8-39.1-43.6
					c-1.7-3.8-0.8-7.9-0.6-11.9c8.9,26.7,25.9,45.6,52.7,57.2C119.9-55.5,116.1-55.6,112.2-57.9z M309.9-56.9
					c-1.5-1.2-2.8-1.3-4.3-0.2c-3.2,2.1-6.6,1.4-10.2,0.6c2.7-1.4,5.5-2.7,8.4-4.2c-1.5-3.3-3.2-3.7-6.3-2.3
					c-23.1,10.4-46.4,10.4-69.5-0.1c-2.9-1.3-4.5-0.9-6.2,2.4c3,1.5,5.7,2.8,9.3,4.6c-4.3,0.6-7.6,1.1-10.8-0.9
					c-1.7-1-3.1-1.2-4.8,0.2c-1.9,1.6-4.1,1.3-6.4,0.5c0.5-2.1,2.2-2.5,3.4-3.4c25-19,38.4-44,39.3-75.5c0.1-5.2,1.6-9.4,6.6-11.6
					c7.4-3.3,15,2,15,10.7c0,9.6,1.6,19,4.5,28c6.4,19.7,18,35.7,34.6,48.1c1.3,0.9,2.5,1.9,4.3,3.3C314.2-55.4,312-55.3,309.9-56.9
					z M323.4-58.6c-25.4-15.7-40.5-38.1-44.3-67.8c-0.4-3.5-0.8-7-0.8-10.5c-0.2-8.9-6.8-15.5-15.3-15.6
					c-8.8-0.1-15.5,6.6-15.7,15.7c-1,32.2-14.5,57.5-41.2,75.7c-5.1,3.5-10.3,6.9-17.1,5c0.8-1.4,2.3-1.5,3.5-2.1
					c32.2-16.1,49.2-42.1,50.8-78c0.5-11.8,8.1-20.2,19.1-20.4c11.2-0.2,19.5,7.8,20,19.4c1.5,37.6,19.3,64.2,53.4,80.1
					c0.3,0.1,0.5,0.4,1.3,1C331.7-55.1,327.5-56.1,323.4-58.6z M522-57.2c-1-0.9-2.1-0.8-3.4-0.3c-5.1,2-5.1,1.9-11.9,1.6
					c3.5-1.8,6.4-3.3,9.5-4.9c-1.3-3.3-3-3.9-6.1-2.3c-14.5,7.3-30,8.7-45.8,7.2c-8.2-0.8-16.2-3.3-23.7-7.1
					c-2.7-1.4-4.6-1.3-6.2,1.9c2.3,2.3,5.7,2.8,9.2,5.3c-4.5,0.1-7.9,0.9-11.1-1.2c-1.5-1-2.9-1.1-4.3,0.1c-2.1,1.8-4.6,1.3-7.2,1
					c0.2-1.8,1.7-2.1,2.7-2.9c25.9-19.1,39.7-44.6,40.7-76.9c0.2-6.5,3.1-10.6,8.4-11.8c4.7-1.1,9.9,1.4,11.9,5.7
					c1.2,2.6,1.1,5.5,1.2,8.3c0.4,13.2,3.6,25.8,9.3,37.7c7,14.6,17.1,26.6,30.2,36.1c1.4,1,2.8,2,5.1,3.7
					C526.8-55.6,524.2-55.1,522-57.2z M539.1-56.9c-24.2-13.3-39.5-33.4-46-60.2c-1.5-6.3-2.1-12.8-2.3-19.4
					c-0.2-9.3-6.7-16-15.4-16.1c-9-0.1-15.2,6.6-15.6,16.3c-1.5,34.2-16.6,60.5-46.2,78.2c-3.9,2.3-7.7,2.7-12,2.1
					c0.1-1.1,0.9-1.1,1.5-1.4c33.8-16,51.2-42.7,52.7-80c0.5-12.2,10.3-20.6,22.3-19c9.9,1.2,16.6,9.4,16.8,20.5
					c0.4,21.1,7.6,39.6,21.2,55.6c7.5,8.8,16.6,15.7,27,20.9c1.5,0.8,3.1,1.5,4.6,2.9C544.7-55.6,542-55.3,539.1-56.9z M555.4-59.6
					C539.7-64.8,526.9-74,516.8-87c-11.6-14.9-16.8-31.9-17.2-50.6c-0.2-11.1-7.8-20.5-18.3-23.1c-10.8-2.7-22,2.2-27.5,12
					c-2.5,4.4-3,9.3-3.2,14.3C449.6-99.4,426.7-69,393-59C340-43.2,290.4-81,287.5-132.2c-0.2-3.9-0.1-7.8-1.1-11.5
					c-3.3-11.4-14.8-19.1-26.3-17.6c-12.3,1.6-21.1,11.2-21.6,23.5c-1.5,35.7-17.5,62.4-50.8,76.2C137.5-40.9,82.8-72.8,75.5-126.7
					c-1-7.3-0.2-14.8-3.2-21.8c-0.6-1.3-0.1-3.1,0.4-4.8c4.4,4.2,5.8,9.6,6,15.3c0.2,4.9,0.4,9.8,1.3,14.7
					c6.6,36.6,38.5,63.7,75.5,64c37.2,0.4,69.7-25.9,77.2-62.1c1.3-6.5,1-13,1.9-19.4c2.5-18.7,21.9-29.9,39.2-22.4
					c11.1,4.8,16.9,13.5,17.3,25.6c0.3,9.2,1.6,18.2,4.8,26.9c12,33.2,45.9,54.9,79.9,51.2c37.1-4.1,65.6-31.4,70.3-67.4
					c0.6-4.7,0.5-9.5,1.1-14.2c1.9-14.1,13.8-24.4,28.1-24.4c14.5,0.1,26.5,10.8,28,25.1c0.9,8.6,0.9,17.2,3.6,25.6
					c7.6,23.3,22.4,39.9,45,49.7C554.1-64.2,557.6-63.9,555.4-59.6z M72.9-196.3c2.2-0.3,3.8,0.9,5.5,1.8
					c22.3,11.6,34.6,30,35.8,55.2c0.6,11.5,3.2,21.9,11.1,30.6c12,13.1,30.1,17.5,46.4,11.2c16.5-6.4,27-21.9,27.3-40.3
					c0.4-27.2,17.3-50.7,42.8-59.6c41.3-14.4,84.1,15.6,85,59.4c0.5,25.2,19.3,43.9,43.6,43.2c22.7-0.6,40.5-19.1,41-42.8
					c0.5-22,9.5-39.7,27.6-52c20.8-14.2,43.3-15.6,65.6-4.2c22.2,11.4,33.7,30.4,34.5,55.4c0.5,13.2,4.8,24.4,14.8,33.2
					c1.8,1.6,3.3,3.1,1.7,6c-4.2-1.9-7.1-5.2-9.9-8.5c-7.1-8.6-10.3-18.7-10.5-29.8c-0.6-30.3-22-54.6-51.8-59
					c-28.4-4.2-56.2,13.4-65.4,41.4c-2,6.1-2.6,12.3-2.8,18.7c-1,34.3-36,56-66.4,40.9c-17-8.4-25.9-22.9-25.9-41.7
					c-0.1-27.1-19.9-53.9-50.6-59.1c-34.4-5.9-68,20.9-69.3,55.9c-0.4,12.2-2.8,23.5-10.9,32.9c-12.8,14.7-29,20-47.6,15
					c-18.7-5-29.8-17.8-33.5-37c-1.1-5.8-0.3-11.6-1.4-17.4c-4-20.2-15-35-33.4-44.3C74.2-192.2,71.2-192.8,72.9-196.3z M72.7-206.4
					c14.2,4.6,25.4,12.4,34.4,23.5c11.1,13.7,15.9,29.5,16.4,47c0.7,23.4,24.7,38.9,46,29.5c13-5.7,19.9-16,20.4-30.2
					c0.4-11.8,2.6-23,8-33.6c14.5-28.3,45.6-44,76.7-38.8c31.2,5.2,55.4,29.5,60.2,60.7c0.7,4.3,0.9,8.8,1.1,13.2
					c1,17.7,15.8,31.7,33.4,31.5c17.9-0.2,32.4-14.7,32.8-32.7c0.9-37.1,24.8-65.8,60.4-72.5c42.6-7.9,83.4,24.3,85.3,67.6
					c0.4,9,1.6,17.5,7.4,24.8c1.2,1.5,1,1.6,0.3,6.2c-5.8-5.6-9.2-12-10.6-19.3c-0.7-3.3-0.9-6.6-1-10c-1.2-36.8-31.1-66-68.1-66.5
					c-35.9-0.5-66.6,27.8-69.2,63.7c-0.2,2.8-0.2,5.6-0.5,8.4c-1.8,19.6-17.8,34.2-37.2,34.1c-19.7-0.1-35.8-14.9-37-34.8
					c-0.6-10.3-1.8-20.3-5.9-29.8c-12.4-28.7-42.9-45.6-74-40.8c-30.4,4.7-54.4,29.9-57.7,60.5c-0.4,3.3-0.5,6.7-0.6,10
					c-1.1,19.7-17.6,35.1-37.5,34.9c-19.9-0.2-36.2-15.9-36.7-35.6c-0.7-27.2-12.1-48-35.7-61.9c-2.7-1.6-5.7-2.7-8.6-4.1
					C72.9-202.3,72.9-202.4,72.7-206.4z M555.5-69.1c-7.5-2.4-14-6.4-20-11.4c-17.3-14.5-26.3-33.1-26.8-55.8
					c-0.4-18.6-13.9-33.1-31.6-34.1c-19.3-1-35,14-35.3,34c-0.3,19-6.9,35.5-19.8,49.3c-20.1,21.5-51.7,28.6-79.2,18
					c-27.5-10.6-46.1-36.6-46.4-66c-0.2-21.8-16.4-34.7-32.1-35.4c-19.1-0.8-34.5,14.1-34.9,33.9c-0.4,21.8-8.5,40.3-25.1,54.4
					c-21.5,18.3-46.3,22.9-72.7,13.3c-26.5-9.6-41.9-29.3-46.9-57.1c-0.6-3.1-0.9-6.3-0.8-9.5c0.1-9.6-2.9-18-9.6-25
					c-1.6-1.7-2.6-3.3-1.1-6.4c9.7,7.9,14.5,17.6,14.6,29.5c0.2,16.3,5.2,30.8,15.5,43.4c18.1,22.4,48.2,31.1,75.3,22
					c27.2-9.2,46-34.2,46.8-62.9c0.3-8.9,2-17.1,7.3-24.4c9.6-13.1,26.3-18.5,41.9-13.5c15.3,4.9,25.4,18.8,25.7,35.1
					c0.6,34.4,23.7,62,57.2,68.2c39.8,7.4,79-23.7,80.5-64.2c0.3-8.6,1.3-16.8,6.2-24.2c9.1-13.6,25.4-19.8,41.2-15.5
					c15.5,4.2,26.5,17.7,27.3,34.4c0.4,8.5,1.2,16.9,4.2,24.9c6.7,17.8,18.6,30.9,35.8,39.2C554.5-73.6,557.6-73,555.5-69.1z
					 M72.5-223.6c0.4-1.1,1.3-0.9,2.2-0.7c1.2,0.3,2.4,0.6,3.6,1c36.2,11.5,61.5,45,62.7,83.1c0.1,3,0.1,6,1.2,8.8
					c2.6,6.4,9.2,10.4,16,9.7c7-0.7,12.7-6.1,13.6-13.4c1-7.3,1-14.7,2.5-22c8.7-40,44.3-69.5,85.5-70.6c42.2-1.1,79.3,26,90.2,65.9
					c2.2,8,3.1,16.2,3.4,24.5c0.3,8.2,5.9,14.4,13.3,15.5c7.3,1.1,14.6-3.5,17-10.6c0.9-2.7,1-5.6,1-8.4c0.1-9.6,1.9-19,5.5-27.9
					c13.9-34.7,39.5-55.3,76.6-58.6c39-3.5,68.5,13.3,88.4,47.1c1.7,3,1.1,6,0.5,9.1c-4.6-9-9.8-17.3-16.5-24.7
					c-23.7-25.8-60.1-35-92.9-23.3c-33,11.7-55.6,42-57.6,77.1c-0.1,2.3-0.2,4.6-0.4,6.9c-1.1,9.9-8.9,17.1-18.8,17.3
					c-10.1,0.2-18.5-6.9-19.6-16.9c-0.8-7.3-0.9-14.7-2.6-22c-9-39.8-45.5-68.2-86.3-67.2c-41.2,1.1-76.1,30.7-83.4,70.8
					c-1,5.4-1.2,10.8-1.4,16.3c-0.4,9.2-6.1,16.2-14.7,18.4c-8.2,2.2-17-1.4-21.5-8.7c-2.2-3.6-2.8-7.5-2.9-11.6
					c-0.8-26.5-11.4-48.3-31.6-65.5c-8.2-6.9-17.4-11.9-27.6-15.3c-1.5-0.5-3-1-4.4-1.6C72.3-221.4,72.1-222.5,72.5-223.6z
					 M555.7-79.1c-2.1,0.3-3.7-1-5.3-2c-21-12.3-32.3-30.7-32.7-55c-0.4-22.3-15.6-38-32.9-42.1c-24.2-5.7-48.6,11.3-51.4,36.1
					c-0.8,7.2-0.6,14.4-2.5,21.5c-8.4,30.6-37.3,50.7-68.3,47.3c-32.2-3.5-56.4-29.3-57.4-61.6c-0.5-17.5-7.3-31.1-22.9-39.4
					c-27.6-14.7-60.7,4.8-61.7,36.3c-0.5,17.1-5.4,32.4-17.4,44.7c-19.1,19.5-42.2,25.5-67.8,16.5c-25.6-9-39.7-28.1-42.5-55.3
					c-0.5-5.2-0.3-10.6-1.7-15.7c-2.6-9.5-7.9-17.2-15.8-23.1c-1.9-1.5-4.4-2.6-2.2-6.2c9.9,5.7,16.7,13.9,20.7,24.4
					c2,5.2,2.4,10.6,2.7,16.1c0.9,22,10.3,39.4,29.1,51c39,23.9,88.4-3,90.9-49.2c0.4-7.1,0.9-14,3.9-20.6c8.9-19.9,30-31,51.2-26.8
					c21.5,4.2,37.1,22.4,37.3,44.5c0.2,29.8,20.1,52,44,58.7c37.6,10.6,74.5-16.8,76-56.7c0.6-15.2,5.6-28,17.7-37.3
					c14.8-11.5,31.4-13.3,48.3-5.5c16.6,7.7,25.8,21.3,26.4,39.6c0.8,24.4,10.9,42.9,32.2,55.1C555.4-82.9,557.2-81.8,555.7-79.1z
					 M555.9-89.2c-1.6,0.9-2.7-0.4-3.7-1.1c-16.3-10.8-25.1-25.9-25.7-45.4c-0.5-17.3-6.7-31.7-20.7-42c-16.3-12-34.1-14-52.4-5.3
					c-18.4,8.8-28.2,24-29.3,44.3c-0.5,9.5-1.8,18.5-6.2,27c-11.9,22.8-36.9,34.2-62,28.2c-24.3-5.7-41.4-27.2-42-52.5
					c-0.5-21.5-10-37.6-29.4-47.1c-33.3-16.2-71.2,7.3-73,45.2c-0.5,11-2.7,21.2-8.7,30.6c-13.1,20.5-37.8,29.9-61.3,23.4
					c-23-6.3-39.6-27.3-40.1-51.3c-0.4-20.4-8.8-35.9-26.3-46.4c-1.9-1.1-3.8-2.1-2.2-5.7c15.6,7.5,25.6,19.2,30.4,35.5
					c1.4,4.9,2,10,2.1,15.1c0.4,28.2,23.1,50.8,50.9,50.9c28,0.1,50.7-22.7,51.2-51.2c0.4-23.1,13.7-42.8,34.5-51.1
					c36.2-14.5,74.9,11.4,75.7,50.7c0.5,22.7,13.6,41.3,34.2,48.6c32.6,11.6,67.2-12.5,68-47.5c0.4-20.8,9-37.2,26.8-48
					c36-21.9,82.7,3.9,83.4,46.1c0.3,18.7,7.9,33.2,23.1,43.9C555.3-93,557.1-91.9,555.9-89.2z M555.6-125.9
					c-2.5-4.1-2.4-8.3-2.6-12.4c-0.6-18.8-6.9-35.5-19.2-49.7c-21.2-24.3-55-33.1-85.2-22c-30.4,11.1-50.7,39.7-51.2,72.1
					c-0.2,15.7-10.6,27.7-25,29.2c-15.2,1.5-28-7.6-31.2-22.4c-0.4-2-0.5-4.2-0.6-6.3c-0.6-40.2-30.8-73-70.9-77
					c-39-3.9-75.4,23.3-83.4,62.6c-1.1,5.4-1.2,10.8-1.5,16.3c-0.6,13.4-10.4,24.5-23.1,26.6c-13.8,2.3-26.5-4.7-31.6-17.4
					c-1.3-3.3-1.9-6.8-2-10.3c-1.5-35.7-18.9-60.3-52.1-73.7c-2.1-0.8-4.7-1.2-3.2-5.3c25.7,8.2,43.6,24.3,53.6,49
					c3.9,9.7,5.4,20,5.6,30.5c0.2,11,8.2,20.5,18.6,23c10.6,2.6,21.6-2.3,27.1-11.9c2.3-4.1,2.9-8.5,3.2-13.2
					c1.7-33.3,16.9-58.4,47.2-72.7c53.3-25.1,115.6,12.4,116.5,74c0.2,10.5,6.3,19.2,15.8,22.9c9,3.5,19.4,1.1,26.2-6.1
					c4.7-5,6.7-11,6.8-17.8c0.4-19.6,6.5-37.2,19.4-51.8c21.5-24.4,48.8-33.8,80.5-26.6c31.5,7.1,51.7,27.3,60.7,58.4
					C556.6-149.4,557.2-133.4,555.6-125.9z M522.1-228.9c13.4-8.8,23.8-20.3,30.9-34.7c0.7-1.4,1.4-2.8,2.1-4.2
					c0.1-0.1,0.3-0.2,1.1-0.8c0.3,3.8,0.6,6.9-1.3,10.1c-6.9,12.3-16,22.7-27.6,30.9c-1,0.7-2,1.4-3,2.2c-0.2,0.2-0.3,0.6-0.5,0.9
					c2,2.8,4,2.6,6.6,0.7c8.4-6.2,15.9-13.4,22-21.9c0.9-1.2,1.9-2.5,2.9-3.9c1.4,4.8,1.4,4.8-2.1,10c1.3,1.4,3.3,2.6,3.2,5.2
					c0,3.4-0.8,5.5-4.4,6.5c-6.7,1.9-13.2,4.7-19.2,8.8c1.7,3.1,3.6,3.3,6.5,1.8c5.1-2.7,10.3-5.2,16.2-6.3c1.6,3-0.2,3.9-2.4,4.6
					c-4.3,1.6-8.6,3.2-12.7,5.7c1.3,3.2,3.1,3.8,6.1,2.2c2.8-1.5,5.6-2.9,8.8-3.3c0.4,2.2,0.4,2.2-7.9,7.9c1.7,5.5,5.3,1.6,8,1.5
					c2.3,3.1-0.8,4-2.2,5.7c2,2.9,4.3,5.7,2.6,9.5c-1.7-0.2-2.1-1.8-2.8-2.8c-22.7-31.5-61.5-46.4-98.7-37.9
					c-38.1,8.7-67,39.3-73.4,77.9c-0.8,4.7-1,9.5-1.2,14.2c-0.4,7.2-4.5,11.9-10.8,11.8c-6.2,0-10.3-4.7-10.5-12
					c-1.3-44.4-30.7-81.1-73.4-91.6c-55.6-13.6-111.3,25.7-117.1,82.6c-0.3,2.8-0.6,5.6-0.7,8.4c-0.3,7.8-4.1,12.5-10.5,12.5
					c-6.6,0.1-10.5-4.7-10.7-12.9c-0.3-14.3-3.7-27.9-10.2-40.6c-12.6-24.4-32.1-40.6-58.3-48.8c-1.6-0.5-3.6-0.4-4.7-2
					c-1.5-2.2-0.3-5.7,2.5-6.8c5.8-2.3,11.2-5.2,16.1-8.9c18.4-14.1,27.5-32.9,28.1-56c0.4-16.1,10.1-29.5,24.8-34.6
					c23.8-8.3,48.6,8.5,49.4,33.8c0.7,22.8,9.1,41.7,27.2,56c4,3.2,8.4,5.8,13.1,8c6,2.8,11.9,4.7,18.8,3.5
					c7.8-1.4,15.8-0.7,23.7,0.2c2.9,0.4,5.5,0,8.3-0.9c26.4-8.8,45-33,46.8-60.8c0.3-4.2,0.2-8.5,1.1-12.6c4-18,20.4-30.4,38.7-29.2
					c18.2,1.1,32.8,15.1,34.7,33.3c0.8,7.5,0.6,15.1,2.9,22.5c7.2,23.6,22.6,39.3,45.9,47.3c2,0.7,4.1,0.8,6.2,0.5
					c9.3-1.2,18.6-1.3,27.9-0.1c2.7,0.4,5.2,0.1,7.8-0.8c27.6-9.1,46.3-34,47.2-63.1c0.3-9,2-17.5,7.7-24.8c1.1-1.5,1.9-3.4,4.2-3.8
					c1,1.9,0.9,3.8-0.4,5.4c-5.8,7.1-7.1,15.4-7.6,24.2c-1.5,26.7-14.2,46.7-37.1,60.2c-2.7,1.6-5.6,2.8-8.6,4.4
					c3.2,3,6.2,2.7,9.5,0.8c26-14.8,39.8-37,41.4-66.9c0.3-4.7,0.1-9.4,3-13.9c3.1,26.6-3,60.9-41.8,84.6
					C516.9-226.6,519.2-227,522.1-228.9z"/>
				<path class="st2" d="M555.4-685.5c-1.1,0.5-2.2,1.1-3.3,1.7c-20.1,12-30,29.9-30.7,53.3c-0.6,18.8-9.5,32.8-26.4,40.7
					c-17.1,8-33.8,5.9-48.7-5.8c-11.8-9.3-16.7-22-17.3-37c-1.5-39.5-37.5-66.7-74.9-57c-26.6,6.9-44.3,30-45,58.9
					c-0.5,21.9-15.7,40.3-36.8,44.5c-21.6,4.3-42.8-6.6-51.8-26.6c-2.9-6.6-3.6-13.5-3.9-20.6c-2.1-40.6-41-67.7-78.8-55
					c-21.1,7-40.7,27-41.3,57.5c-0.3,17-7.9,30-22.3,39c-2.5,1.6-3.6,3.1-2.3,6.7c4-1.8,7.4-3.9,10.5-6.5
					c12.9-10.7,18.6-24.5,19.3-41.2c0.9-23.5,12.4-40.7,34.3-49.5c21.7-8.7,42-4.6,59.2,11.6c11.3,10.7,15.9,24.3,16.6,39.9
					c1.3,33.2,30.1,56,61.7,49.4c23.7-4.9,40.1-25.5,40.6-50.7c0.7-37.2,36.1-62.9,71.4-51.9c22.4,7,37.9,27.3,38.5,50.9
					c0.2,8.6,1.7,16.8,5.5,24.5c10.5,21,33.8,32.1,56.7,27.2c23.1-5,39.4-24.7,40.2-49.4c0.7-21.5,9.8-37.8,28.3-48.7
					c2.7-1.6,3.1-3.3,2-5.8C556-685.5,555.6-685.6,555.4-685.5z"/>
				<path class="st2" d="M556.4-453.4c-3.1-5.3-3.1-11-3.5-16.9c-2.1-29.6-16-52.1-42.4-65.6c-26.4-13.5-53-12-77.9,4.2
					c-23.1,15.1-34.7,37.2-35.3,65c-0.3,15.9-12.7,28.3-28.2,28.4c-15.7,0.1-28.3-12.4-28.5-28.5c0-4.4-0.4-8.8-1.2-13.1
					c-5.8-32.8-32.3-58.9-64.5-63.7c-34.4-5-67.1,12-82.2,43c-5.3,10.8-7.6,22.2-7.9,34.2c-0.3,14.3-10,25.3-23.7,27.6
					c-13.5,2.3-26.4-5.2-31.3-17.9c-1.7-4.6-1.7-9.3-2-14.1c-1.2-20.6-9.3-38.1-24.2-52.4c-8.9-8.5-19.3-14.6-31.4-18.1
					c-2,4.3,0.7,5.1,3.2,6.1c28.4,11.5,44.2,32.6,47.4,63.1c0.4,4,0,8.1,0.9,12.1c3.8,16.6,18.4,27.6,35.3,26.4
					c16.5-1.2,29.4-14.6,30.6-31.7c0.4-5.3,0.4-10.5,1.6-15.7c6-27.4,22.2-46.3,48.8-54.9c26.9-8.7,51.6-3.1,72.6,16.1
					c16,14.6,22.5,33.5,23.3,54.9c0.6,18,15.8,31.8,33.8,31.5c17.7-0.4,31.9-14.7,32.4-32.5c0.1-2.5,0.3-4.9,0.5-7.4
					c3.5-36.3,32.6-64.5,68.2-66.1c37.7-1.7,69.1,23,76,59.5c1.1,5.9,0.7,12,1.6,17.9c0.9,6.1,3.1,11.6,7.8,16.7
					C557.6-448.7,557.6-451.4,556.4-453.4z"/>
				<path class="st2" d="M555.3-440.1c-8.4-8.2-11.1-18.4-11.4-29.7c-1.1-40.9-40-72.2-80.2-64.8c-32.7,6-55.6,32.2-57.2,65.4
					c-0.3,5.5-0.6,10.9-2.7,16.1c-6.5,16.3-23.2,26-40.2,23.3c-17.3-2.7-30.2-16.5-31.6-34c-0.5-6-0.4-12-1.9-17.8
					c-6.9-26.9-23.5-44.8-50.4-51.7c-26.7-6.8-49.9,0.9-68.5,21.2c-12.1,13.2-17,29.2-17.5,47c-0.7,23.8-22.8,40.2-46,34.7
					c-16.3-3.9-27.8-18.1-28.2-35.2c-0.4-19-6.7-35.5-19.9-49.2c-7.6-7.8-16.6-13.5-27.4-17.1c-0.4,4.7-0.4,4.7,2.9,6.2
					c25,11.5,38.1,30.9,39.3,58.3c0.2,4.6,0.6,9.1,2,13.5c6.6,20.1,26.3,32.2,47.2,28.9c20.3-3.2,34.9-21,35.5-42.6
					c0.6-25,12.1-44,34.1-55.6c22.3-11.7,44.8-10.3,65.7,3.7c18.5,12.4,27.5,30.5,28,52.9c0.5,25.5,21.9,44.6,46.8,41.9
					c21.7-2.3,37.3-20.2,37.7-43.1c0.8-41.2,39-70.6,79.1-60.9c28.6,6.9,48.3,31.8,48.8,61.4c0.2,12.6,4.7,23.3,14,31.9
					c0.9,0.9,1.7,2.4,3.5,1.6C557.1-438.1,557.2-438.3,555.3-440.1z"/>
				<path class="st2" d="M73.6-576.3c0.5-0.2,1-0.4,1.5-0.6c17.8-8.5,29-22.3,33.9-41.5c1.7-6.8,0.8-13.7,2.1-20.5
					c3.2-17.4,12.8-29.6,29.3-35.8c16.5-6.2,32-3.5,45.7,7.6c12.2,9.9,16.5,23.4,17,38.8c1.2,36,36,62.9,71.2,55.6
					c28.3-5.8,47.8-29.4,48.5-58.1c0.5-19.5,9.1-34.3,26.9-42.7c30.4-14.2,64.5,7.4,65.5,41.3c0.2,6.4,0.8,12.7,2.8,18.7
					c9.2,28.4,37.2,45.7,66.4,41.2c28.9-4.4,50.1-29,50.7-58.9c0.3-15.8,6.6-28.7,19.4-38c2.4-1.8,3.2-3.5,2.2-6.4
					c-1.8-0.2-2.7,0.8-3.6,1.5c-14.9,10.5-22.6,24.7-22.8,43c-0.6,40.2-41.8,66.5-78.2,49.5c-21.2-9.8-31.6-27.3-32.1-50.6
					c-0.9-36.7-38-61-71.3-46.2c-20.1,8.9-30.4,25.1-30.9,47.1c-0.9,37.4-35.6,63-71.1,52.5c-23.3-6.9-38.7-27.8-39.2-53.2
					c-0.5-28.3-23.1-50.6-51.1-50.7c-28,0-50.5,22.4-51.1,50.6c-0.5,22.3-10.6,39-30.3,49.7c-2.8,1.5-4.8,2.8-2.8,6.1
					C72.9-576.3,73.3-576.2,73.6-576.3z"/>
				<path class="st2" d="M539.1-630.5c-0.6,25.2-12.3,44.4-34.7,55.8c-22.3,11.3-44.9,9.8-65.6-4.4c-18.1-12.4-26.9-30.1-27.4-52.1
					c-0.5-25-20.4-43.9-44.9-42.5c-21.9,1.3-39.6,19.7-39.8,43.5c-0.4,39.8-37,69.1-76,61.5c-30.1-5.9-51.1-31.2-51.7-62.2
					c-0.5-27.7-25-47.7-51.5-41.8c-17.7,3.9-31,18.9-32.8,37c-0.7,6.8-0.5,13.7-2.4,20.4c-5.6,20.1-18,34.4-37.1,42.8
					c-2.8,1.2-4.7,2.4-3,5.7c2.1,0.5,3.8-0.7,5.5-1.5c27.2-12.9,40.8-34.5,41.8-64.4c0.8-25.2,25.5-42.2,49.3-34.1
					c15,5.1,24.4,18.3,25,35c1.1,31.3,19.3,56.4,47.6,65.8c2.5,0.8,5,1.1,7.7,0.8c9.1-1.1,18.3-1.1,27.4,0c2.7,0.3,5.2,0.1,7.7-0.8
					c21.2-7.5,35.9-21.7,43.7-42.9c2.9-8,3.5-16.4,4-24.9c1.2-19.9,17-34.7,36.8-35c19.5-0.2,35.7,14.6,37.4,34.4
					c0.3,3.2,0.3,6.3,0.5,9.5c2.4,27.3,22,51.3,48.1,59.2c2,0.6,4,0.8,6.2,0.5c9.1-1.2,18.3-1.1,27.4-0.1c3.1,0.3,5.9,0.1,8.8-0.9
					c27.2-9.2,45.8-34.1,46.7-62.9c0.4-11.3,3.3-21.5,12-29.5c2-1.8,1.6-4,1-6.8C546.5-658.8,539.4-644.8,539.1-630.5z"/>
				<path class="st2" d="M120.4-508.9c7.8,13,11.5,27.1,11.7,42.2c0.2,13.8,11.5,24.7,24.7,24.5c13.3-0.2,23.7-11,24.1-24.6
					c0.1-3.2,0.4-6.3,0.8-9.5c5.9-52,58.5-85,108-67.8c33,11.5,54,41.1,55,77.6c0.3,10.9,7.4,20.2,17.6,23.2
					c10.3,2.9,21.3-1.3,27.2-10.3c3-4.6,3.9-9.7,4-15.1c1.1-40.6,31.7-74.8,70.9-79.1c42.5-4.8,79.3,20.2,90,60.8
					c0.5,1.9,0.3,4.2,2.7,6.1c0.1-8.3,0.2-15.5-3.4-22.9c-15.4-31.8-47.6-51.1-83.6-49.5c-33.6,1.5-64.3,24.4-76.2,56.6
					c-3.8,10.4-4.8,21.2-5.7,32.1c-0.8,10-8.8,17.1-18.7,17.3c-10.3,0.2-18.4-6.7-19.7-16.8c-0.4-3.3-0.4-6.7-0.7-10
					c-3.3-40.6-34.7-73.1-76-78.7c-38.6-5.2-77.6,18.5-91.4,55.6c-3.6,9.7-5.4,19.6-5.6,30c-0.1,11.7-8.4,20-19.5,20
					c-10.9,0-18.9-7.9-19.6-19.3c-0.1-1.9-0.2-3.9-0.3-5.8c-2.2-35.2-25.9-65.8-59.5-76.7c-1.6-0.5-3.2-1.6-5.1-0.9
					c-1.9,4,1.1,4.6,3.8,5.6C95.1-538,110-526.2,120.4-508.9z"/>
				<path class="st2" d="M553.1-522c-23.3-32.9-65-47.7-103.8-36.7c-40.8,11.6-68.2,47.2-69.7,90.7c-0.3,7.3-4.4,11.9-10.6,12
					c-5.8,0-11-5.1-10.7-11.9c0.2-5.8-0.7-11.6-1.8-17.3c-7.5-37.6-36.9-67.4-74.4-75.1c-37.6-7.7-76.4,7.9-98.1,39.5
					c-10.9,16-16.4,33.8-16.9,53.1c-0.2,5.9-2.5,9.3-7.2,11.1c-5.5,2.1-13.8-1.7-14.1-11.7c-1.2-36.6-18.2-64-49.8-82.3
					c-7.3-4.2-15.2-7.3-23.5-9c-2.2,4.2,0.5,4.9,3.4,5.8c25.6,7.9,44.4,23.8,56.2,47.9c5.9,12.1,8.6,24.9,8.9,38.3
					c0.2,9.6,6.5,16.2,15.2,16.3c8.7,0.2,15.1-6,15.9-15.6c0.3-3.7,0.2-7.4,0.7-11.1c4.7-39.4,35.8-71.9,74.6-78.2
					c41.1-6.6,80.5,14,97.6,51c5.6,12,8.2,24.6,8.5,37.9c0.2,9.4,6.9,16,15.5,16c8.5,0,14.8-6.2,15.6-15.4c0.3-4.2,0.3-8.5,0.9-12.6
					c5.3-38.4,34.1-68.7,72.6-76.5c37.2-7.5,75.9,10,95.4,43.1c0.9,1.5,1.3,3.3,3.4,4.6C557.8-515.4,557.8-515.4,553.1-522z"/>
				<path class="st2" d="M376.5-705c0.9,0.6,1.2,0.9,1.5,1c1,0.3,2,0.5,3.1,0.7c12.1,1.9,23,6.6,32.6,14.2
					c18.5,14.7,27.8,34.1,28.2,57.8c0.3,18.7,15.2,33.2,33.5,33.1c18.1-0.1,32.7-14.5,33.3-32.9c0.1-3,0-6,0.5-9
					c3.9-27.5,18.6-47,43.8-58.5c3-1.4,4.9-2.5,3.2-5.9c-0.6-0.1-0.9-0.2-1.3-0.2c-0.3,0-0.7,0.1-1,0.2c-22.3,9.4-37.9,25.1-46.1,48
					c-3.3,9.3-3.5,19-4.5,28.6c-1.4,13.3-12.1,23.4-25.7,24.7c-13.2,1.2-25.8-7.3-29.6-20c-1.2-4.1-1.2-8.4-1.5-12.6
					c-1.9-28-15.3-48.8-39-63.5C398.1-705.1,388-706.4,376.5-705z"/>
				<path class="st2" d="M448.7-563.5c-7.4-3.2-14-6.8-19.8-11.7c-17.8-15-26.2-34.4-26.7-57.5c-0.4-19.3-17.9-34.3-37-31.8
					c-16.5,2.1-28.6,14.9-29.2,31.7c-0.7,21-7.4,39.3-22.7,54c-6.8,6.5-14.7,11.4-23.9,15.4c3.8,2.8,6.8,2.5,10,0.6
					c26.4-15.3,40.4-38.1,41.2-68.6c0.5-18.9,17.3-32.2,35.4-27.6c13,3.3,21,14.3,21.5,28.5c1,30.4,15.2,52.8,41.5,67.9
					C442.3-560.8,445.2-560.9,448.7-563.5z"/>
				<path class="st2" d="M342.5-398.6c-1.2-0.7-1.8-1-2.4-1.3c-27.8-13.3-42.6-35.2-43.7-66.2c-0.2-4.4-0.8-8.8-2.5-12.9
					c-6.1-15-21.5-23.4-37.1-20.5c-15.8,3-26.8,16.4-27.3,33c-1,30.7-15.5,52.7-43,66.3c-1,0.5-2.5,0.5-2.6,2.1
					c3.3,2.4,6.4,1.7,9.8-0.2c18-10.1,30.3-24.9,37-44.4c3.2-9.1,3.1-18.7,4.2-28.1c1.5-13.2,12.5-23.3,25.5-24.2
					c14.3-1,26.5,7.4,30,20.7c1.1,3.9,0.8,8,1.2,12.1c2.4,28.7,16.3,50,41.3,64.2C336-396.1,338.9-396,342.5-398.6z"/>
				<path class="st2" d="M235.5-563.2c-0.9-1.8-2.6-1.9-4-2.5c-19.2-9.5-32-24.4-38.5-44.7c-2.5-8-2.7-16.3-3.4-24.5
					c-1.5-18.3-18.7-32-36.9-29.7c-16.6,2.1-28.8,15.4-29.3,32.2c-1.1,31.4-15.4,54.2-44,67.8c-0.6,0.3-1.2,0.7-2.2,1.3
					c3.6,2.6,6.5,2.3,9.8,0.5c11.8-6.5,21.5-15.3,28.8-26.6c8.4-13.1,12.3-27.5,12.6-43c0.2-12.4,8.5-22.9,20.1-26.3
					c11.9-3.5,24.2,0.7,31.4,10.7c4,5.5,5.1,11.8,5.4,18.4c1.4,29.9,15.4,52.1,41.3,66.8C229.6-561,232.5-560.7,235.5-563.2z"/>
				<path class="st2" d="M554.4-398.2c-0.7-1.6-1.9-1.6-2.8-2.1c-27.5-13.6-42-35.6-42.9-66.3c-0.6-19-15.3-33.8-33.7-33.7
					c-18.4,0.1-32.7,15-33.3,34.1c-1,30.4-15.5,52.3-42.8,65.8c-1,0.5-2.5,0.5-2.8,2.1c3,2.2,5.9,2,9.2,0.2
					c19.8-11,32.7-27.3,38.9-49.1c2.2-7.9,1.9-16.1,3-24.1c1.8-13.3,12.9-23.3,26.3-23.9c14.2-0.6,26.4,8.3,29.3,21.6
					c0.8,3.6,0.8,7.3,1.1,11c2.1,28.8,16.1,50,41,64.3C548.3-396.2,551.2-396,554.4-398.2z"/>
				<path class="st2" d="M407.4-704.8c0.4,1.7,1.6,1.9,2.4,2.4c23,13.7,36.3,33.8,40.1,60.2c0.7,4.9,0.5,9.9,1.3,14.7
					c2.4,14.5,16.9,23.4,30.9,19.3c10.3-3,17.2-12.2,17.5-23.2c0.7-27.2,11.5-49.4,33.3-66c3.2-2.4,6.7-4.5,10-6.7
					c-3.6-1.4-6.6-1.8-9.7,0.4c-8.3,5.9-15.6,12.6-21.6,20.8c-10.9,15-16.5,31.7-16.8,50.3c-0.2,11.9-8,20.1-19.1,20.3
					c-11.4,0.2-19.5-8-19.9-20c-1-29.8-13.5-53.5-37.7-70.9C414.6-705.5,411.3-705.8,407.4-704.8z"/>
				<path class="st2" d="M436.1-558.9c-0.2-1.3-1.3-1.5-2.2-2.1c-26.1-16.3-39.6-39.8-40.4-70.5c-0.1-2.8-0.5-5.6-1.4-8.3
					c-3.9-11-15.3-17.7-26.8-16c-11.4,1.7-20.2,11.8-20.5,23.5c-0.6,27.7-11.6,50.1-33.7,66.8c-2.9,2.2-6.1,4.1-9.3,6.2
					c2.6,3.1,5,2.6,7.9,0.7c19.3-12.9,31.9-30.4,37.6-53c1.9-7.6,1.8-15.4,2.8-23c1.2-9.8,9.8-16.8,19.5-16.5
					c9.6,0.2,17.6,7.3,18.8,16.8c0.3,2.4,0.3,4.9,0.5,7.4c2.1,29.2,15.4,51.8,39.6,68.3C431.1-556.8,433.6-556.1,436.1-558.9z"/>
				<path class="st2" d="M223.8-559c-1-1.7-2.8-2.2-4.3-3.1c-7.8-4.9-14.7-10.9-20.5-18.1c-12-15-17.7-32.2-18.1-51.3
					c-0.3-14.9-12.6-25.8-27.2-24.3c-12.3,1.3-21.2,11.8-21.7,25.2c-1,30.1-14.3,53.1-39.7,69.3c-1,0.6-2.3,0.9-3,2.5
					c4.2,2.5,4.3,2.5,7.7,0.3c15.9-10.3,27.3-24.2,34.2-41.8c4-10.1,5.5-20.7,5.9-31.5c0.5-13.4,12.3-22,24.9-18.5
					c8.9,2.5,13.9,10,14.2,20.5c1.1,30.5,14.6,54.1,39.8,71.3C218.9-556.6,221.3-556.2,223.8-559z"/>
				<path class="st2" d="M542.5-394.2c-0.5-0.6-0.6-0.9-0.9-1.1c-27.6-16.4-41.2-40.9-42.1-72.8c-0.3-9.9-5.6-17-14.6-20.9
					c-8.8-3.9-17.3-2.7-24.9,3.2c-6.9,5.4-9.2,12.8-9.6,21.4c-1.2,29.5-14.5,52-39.4,67.8c-1.1,0.7-2.7,0.9-3.2,2.6
					c2.5,2.6,5,2.3,7.9,0.3c4.3-3.1,8.6-6.1,12.5-9.8c17.9-17.2,26.9-38.3,27.5-63.1c0.3-11.7,9.1-20,20.4-19.5
					c10.9,0.5,18.3,8.9,18.7,20.9c1.1,30.5,14.4,54.2,39.6,71.4C537.2-392.1,539.7-391.1,542.5-394.2z"/>
				<path class="st2" d="M330-394.1c-0.7-1.8-2.6-2.2-4.1-3.1c-5.8-3.7-11.2-8-15.9-13c-14.9-15.8-22.2-34.7-22.7-56.4
					c-0.4-14.4-10.9-24.4-24.5-24.5c-14.5-0.1-24.2,13-24.5,24.6c-0.7,31-14.6,54.9-41.4,70.9c-0.6,0.4-1.1,0.8-1.2,1.6
					c4,2.5,4.1,2.6,7.8,0c25.6-17.3,38.8-41.5,39.8-72.4c0.3-11.3,8.3-19.7,19-19.9c11.1-0.3,19.5,7.9,20.1,19.4
					c0,1.1,0,2.1,0.1,3.2c1.8,29.8,15,53,39.7,69.8C324.9-392,327.4-391.2,330-394.1z"/>
				<path class="st2" d="M195.1-704.4c0.5,0.6,0.7,1,0.9,1.1c27.9,16.4,41.5,41,42.5,73.1c0.4,12.2,10.4,22.2,22.7,23
					c12.3,0.8,23.8-8.3,25.6-20.5c0.4-2.9,0.4-6,0.6-9c1.6-24,11.8-43.5,30.3-58.8c3.9-3.2,8.3-5.8,12.4-9.1
					c-3.4-1.1-6.4-1.4-9.5,0.8c-10.5,7.4-19.3,16.4-26,27.4c-8.4,13.9-12.1,29.1-12.5,45.3c-0.3,11.3-8.9,19-20,18.8
					c-10.7-0.3-18.7-8.4-18.9-19.4c-0.1-4.2-0.4-8.4-1.1-12.6c-4-25.4-16.9-45.2-37.9-59.7C201.5-705.8,198.4-705.9,195.1-704.4z"/>
				<path class="st2" d="M214.5-554.7c-1.3-0.9-2.3-1.6-3.3-2.3c-20-14.2-32.4-33.4-37.4-57.4c-1.3-6.4-1-13-1.9-19.4
					c-1-7.2-6.6-12.5-13.7-13.3c-6.3-0.7-13,3.2-15.7,9.4c-1.2,2.6-1.3,5.4-1.4,8.3c-1.3,30.5-14.3,54.7-39.1,72.6
					c-1.1,0.8-2.7,1.1-2.8,2.8c2.2,2.8,4.2,2.2,6.7,0.4c12.1-8.7,21.7-19.5,28.7-32.6c7.3-13.6,11.1-28.1,11.4-43.5
					c0.2-7.9,4-12.3,10.7-12.2c6.7,0,10.2,4.3,10.5,12.4c0.1,3.2,0.4,6.3,0.8,9.5c3.6,27.9,16.9,50,39.5,66.6
					C210.1-551.7,212.1-551.5,214.5-554.7z"/>
				<path class="st2" d="M426.6-554.5c-0.2-0.3-0.2-0.5-0.4-0.6c-0.8-0.6-1.7-1.2-2.6-1.9c-18.6-13.1-30.7-30.7-36.4-52.7
					c-2-7.7-2.1-15.7-2.9-23.5c-0.7-7.3-6.2-12.7-13.2-13.8c-6.5-1-13.4,2.9-16.3,9.2c-1.3,2.8-1.4,5.8-1.5,8.8
					c-0.5,19.1-6.5,36.2-17.8,51.6c-6.6,9-14.9,16.4-24.5,22.8c2.4,3.3,4.5,2.9,7,1c15.8-11.5,27.3-26.3,34.2-44.6
					c4-10.7,5.9-21.7,6.1-33.1c0.1-6.6,4.4-10.7,10.5-10.7c6.1,0,10.3,4.2,10.6,10.7c0.1,1.1,0,2.1,0.1,3.2
					c1.7,31.1,15.1,55.9,40.1,74.5C422.6-551.7,424.7-551.4,426.6-554.5z"/>
				<path class="st2" d="M532.9-389.7c-0.2-0.3-0.3-0.5-0.4-0.6c-27.1-18.6-41-44.2-41.7-77.1c-0.1-5.5-2.9-9.8-7.5-12.6
					c-10.5-6.4-23.1,1-23.5,13.7c-0.6,20.5-6.7,39.1-19.3,55.4c-6.4,8.3-14.2,15.1-23.1,21.1c2.5,3.3,4.5,2.8,7.1,0.9
					c14.8-10.7,25.7-24.4,32.8-41.2c4.8-11.3,7.2-23.2,7.3-35.5c0.1-7.1,4-11.5,10.2-11.7c6.5-0.2,10.7,3.9,11.2,11.3
					c0.1,1.6,0.1,3.2,0.2,4.8c2.2,30.1,15.6,54,39.7,72.1C528.5-387.1,530.8-386.2,532.9-389.7z"/>
				<path class="st2" d="M320.6-389.8c-3.4-2.6-6.7-4.9-9.8-7.5c-21-18-31.6-41-32.5-68.5c-0.1-3.2-0.5-6.3-2.3-9.1
					c-3.6-5.8-10.5-8.7-16.9-7.1c-7,1.8-11.8,7.6-11.9,15c-0.3,17.1-4.5,33-13.5,47.7c-7.3,11.9-17,21.5-28.9,29.4
					c2.4,3.3,4.4,2.9,7,1c17.1-12.4,29-28.6,35.6-48.6c3.1-9.3,4.5-18.8,4.6-28.6c0-6.8,4.5-11.2,10.7-11.3
					c6.2,0,10.5,4.4,10.8,11.2c0.1,1.2,0,2.5,0.1,3.7c1.9,31,15.5,55.5,40.5,73.8C316.9-386.5,318.7-387.1,320.6-389.8z"/>
				<path class="st2" d="M431.9-703.5c-2.5-2.3-5.1-2.3-8.1-1.1c0.9,1.9,2.4,2.6,3.6,3.6c9.3,7.9,16.6,17.2,22.2,28
					c6.7,12.9,9.7,26.7,10.1,41.2c0.3,10.4,9,17.5,18.8,15.4c7.3-1.5,11.9-7.8,12.2-16.3c0.9-28,11.9-51.1,33.3-69.1
					c0.9-0.7,2.3-1.1,2.3-3c-3.2-1-5.8-0.6-8.5,1.9c-8.5,7.8-15.6,16.7-21,26.9c-7.2,13.7-10.7,28.2-11.1,43.6
					c-0.2,7.4-4.6,11.6-11,11.4c-6.1-0.2-10.2-4.8-10.3-11.7c0-4.4-0.4-8.8-1.1-13.1C459.9-668.8,449.2-687.9,431.9-703.5z"/>
				<path class="st2" d="M220-703c-2.7-2.5-5.3-2.7-8.4-1.8c0.1,0.6,0,0.8,0.1,0.9c0.7,0.7,1.5,1.5,2.3,2.1
					c21.5,18.1,32.4,41.2,33.3,69.2c0.3,9.8,6.5,16.5,15.5,16.5c9,0,15.3-6.7,15.6-16.4c0.9-27.9,11.7-51.1,33.2-69.2
					c0.9-0.8,2.1-1.3,2.6-3.3c-3.3-0.6-6-0.5-8.5,1.9c-14.2,12.9-24,28.5-28.9,47.1c-2.1,7.9-3.1,15.8-3.2,24
					c-0.1,6.8-4.8,11.2-10.9,11.1c-5.9-0.1-10.2-4.5-10.6-11c-0.1-0.9,0-1.8,0-2.6C251-661.9,240-684.5,220-703z"/>
				<path class="st2" d="M552.9-648.5c-3.9,6.2-4.5,13.1-4.9,20.2c-1.8,28.8-15.9,49.6-41.6,62.7c-1.4,0.7-3.1,0.8-4.1,2.5
					c3.2,2.4,6.2,2.2,9.6,0.2c25.8-14.9,39.6-37.2,41.1-66.9c0.3-5.1,0.6-10.1,3.4-14.7c1.5-2.5,1.2-5.3,0.5-8.5
					C554.6-651.9,553.8-650.1,552.9-648.5z"/>
				<path class="st2" d="M311.1-383.6c-21.7-18.2-79.3-18-96.4,0.3c1.5,2.2,3.1,2.7,5.8,1.4c28.2-14.2,56.4-14.2,84.6-0.1
					C307.9-380.6,309.6-381,311.1-383.6z"/>
				<path class="st2" d="M417.5-548.6c-29.8-19.8-74.4-16.7-96.8,0.4c1.7,2.6,3.6,2.5,6.2,1.2c28-14,56.2-14,84.2,0.1
					C413.9-545.6,415.8-545.8,417.5-548.6z"/>
				<path class="st2" d="M523.7-383.7c-29.9-19.3-72.8-17-96.7,0.3c3.1,2.8,3.1,2.8,6.1,1.3c28.1-13.9,56.3-13.9,84.3,0.1
					C520.3-380.6,522-381.1,523.7-383.7z"/>
				<path class="st2" d="M205-548.5c-27-18.6-70.7-18.2-96.9,0.1c1.6,2.4,3.3,3,6.1,1.5c28.2-14.1,56.5-14.2,84.7,0
					C201.8-545.4,203.5-546.1,205-548.5z"/>
				<path class="st2" d="M71.5-458.7c-0.5,7.4,0.9,14.3,3.5,21.1c7,18.6,18.7,33.3,35.3,44.1c2.9,1.9,5.1,1.6,7.3-0.6
					c-0.3-1.5-1.5-1.6-2.4-2.1c-25.2-15.8-39-38.4-40.1-68.4c-0.1-3.5-0.1-7.2-1.7-10.3c-1.7-3.3-2-6.7-1.8-10.2
					c5.6,5.2,7,11.9,7.3,19.1c1.2,30.3,15,52.9,41.3,67.8c4.5,2.6,4.7,2.4,9.2-0.5c-0.1-0.1-0.1-0.4-0.3-0.4c-0.9-0.5-1.8-1-2.8-1.4
					c-18.6-8.8-31.4-22.8-38.4-42.1c-2.8-7.8-4.1-16-4.2-24.3c-0.1-9.7-3.8-17.9-11.4-24.8c-1.3,2.6-0.6,4.7-0.8,6.7
					C70.6-476.2,72.1-467.4,71.5-458.7z"/>
				<path class="st2" d="M410-542.6c-23.3-15.1-62.2-13.8-81.7,0.2c1.4,2.7,3.3,2.9,6,1.6c23.1-10.5,46.3-10.5,69.4-0.1
					C406.4-539.6,408.2-539.5,410-542.6z"/>
				<path class="st2" d="M197.6-542.7c-25-15.3-63.4-13.2-81.8,0.5c1.6,2.7,3.5,2.6,6.2,1.4c23.1-10.4,46.3-10.4,69.4,0.1
					C194.2-539.5,196-539.6,197.6-542.7z"/>
				<path class="st2" d="M303.7-377.6c-19.7-14.3-62.4-14.3-81.7,0c1.4,2.5,2.9,3.3,5.9,1.9c23.3-10.7,46.7-10.7,69.9,0
					C300.8-374.3,302.3-375.1,303.7-377.6z"/>
				<path class="st2" d="M516.2-378.3c-27.5-13.6-54.5-13.7-82.3,0.2c3.5,3.5,3.5,3.5,6.7,2.1c23.2-10.3,46.4-10.3,69.5,0.2
					C513.2-374.4,514.9-374.9,516.2-378.3z"/>
				<path class="st2" d="M556.6-619.9c-10.1,34.4-12,37.2-42.5,61c4.4,2.5,4.4,2.6,7.9,0.4c14.5-9.5,25.4-22,32.5-37.9
					C557.5-603.2,558.5-613.7,556.6-619.9z"/>
				<path class="st2" d="M297-371.7c-22.9-10.6-45.4-10.6-68.4,0.1c1.5,3.3,3,3.9,5.8,2.8c18.9-7.8,38-7.8,56.9,0
					C294.3-367.7,295.8-368.4,297-371.7z"/>
				<path class="st2" d="M509.4-371.7c-22.8-10.6-45.4-10.6-68.6,0.1c3.1,3.7,3.1,3.8,5.8,2.7c19-7.7,38-7.8,57,0
					C506.6-367.7,508.2-368.3,509.4-371.7z"/>
				<path class="st2" d="M190.9-536.6c-23.2-10.6-45.7-10.6-68.6,0.1c1.5,2.9,2.7,4,5.6,2.8c19.1-7.9,38.3-7.9,57.5,0
					C188.2-532.5,189.5-533.6,190.9-536.6z"/>
				<path class="st2" d="M403.2-536.6c-22.9-10.6-45.4-10.6-68.5,0.1c1.6,3.3,3.1,3.9,5.9,2.8c19-7.8,38-7.8,57,0
					C400.6-532.6,402-533.4,403.2-536.6z"/>
				<path class="st2" d="M503.3-364.8c-18.9-8-37.4-7.9-56,0c0.9,3.4,2.4,4.3,5.5,3.1c15.1-5.7,30.3-5.6,45.4,0.1
					C501.3-360.4,502.5-361.7,503.3-364.8z"/>
				<path class="st2" d="M184.6-529.7c-18.8-8-37.3-8-56.1,0c1,3.6,2.6,4.2,5.6,3c14.9-5.6,30-5.6,44.9,0
					C182.1-525.5,183.7-526,184.6-529.7z"/>
				<path class="st2" d="M397.1-529.7c-18.8-8-37.4-7.9-56.2,0c0.9,3.5,2.4,4.3,5.5,3.1c15.1-5.7,30.2-5.6,45.3,0
					C394.9-525.4,396.3-526.3,397.1-529.7z"/>
				<path class="st2" d="M290.9-364.8c-18.8-7.9-37.4-8-56.2,0c1,3.5,2.5,4.2,5.6,3c14.9-5.6,30-5.6,44.9,0
					C288.3-360.6,289.9-361.2,290.9-364.8z"/>
				<path class="st2" d="M234.6-694.3c1.4,3.5,2.9,4,5.7,2.9c14.9-5.6,30-5.6,44.9,0c3,1.1,4.6,0.5,5.7-3
					C272.1-702.4,253.6-702.6,234.6-694.3z"/>
				<path class="st2" d="M391.8-522.2c-15.2-6.1-30.2-6.1-45.4,0c0.7,3.8,2.4,4.2,5.4,3.2c11.5-3.8,23.2-3.8,34.7,0
					C389.6-518,391.1-518.6,391.8-522.2z"/>
				<path class="st2" d="M178.9-520.6c0.8-1.7-0.7-2.1-1.8-2.5c-14.5-5.2-28.8-5-43.3,0.9c0.9,3.7,2.5,4.1,5.3,3.2
					c11.7-3.9,23.5-3.8,35.2,0c0.5,0.2,1,0.4,1.5,0.5C177.6-517.9,178.3-519.3,178.9-520.6z"/>
				<path class="st2" d="M523.5-554.7c2.6,3.3,4.6,2.8,7.1,1c9.3-6.8,17-15,23.8-24.3c2.8-3.8,3.1-7.5,2-11.9
					C548.3-575.5,537.4-563.6,523.5-554.7z"/>
				<path class="st2" d="M285.5-686.6c-11.1-6.6-35-6.8-45.2,0.2c1.9,3.4,2,3.5,4.8,2.6c11.8-3.8,23.5-3.9,35.2,0
					C283.2-682.8,284.6-683.5,285.5-686.6z"/>
				<path class="st2" d="M497.9-686.6c-12-6.7-31.5-6.8-45.3-0.1c0.8,2.9,1.9,4,4.9,3c11.7-3.9,23.5-4,35.2-0.1
					C495.9-682.7,497.2-683.6,497.9-686.6z"/>
				<path class="st2" d="M497.8-356.9c-11-6.8-34.9-6.6-45.1,0.1c0.6,3.2,2.3,3.7,5.3,2.6c11.5-3.9,23.1-3.9,34.6,0
					C495.7-353,497.3-353.7,497.8-356.9z"/>
				<path class="st2" d="M285.4-356.8c-11.6-6.7-33.7-6.7-45.2,0c0.6,3.1,2.1,3.8,5.3,2.7c11.5-3.9,23.2-3.9,34.7,0
					C283.2-353,284.8-353.7,285.4-356.8z"/>
				<path class="st2" d="M134.2-577.6c-0.7,2,1.2,2.2,2.5,2.6c10.1,3.7,20.5,4.3,31.1,2.4c3.9-0.7,7.9-1.5,11.3-3.7
					c-1.7-3.8-1.8-4.1-4.1-3.3c-12.2,4.1-24.5,4.2-36.7,0C136.2-580.3,134.9-579.6,134.2-577.6z"/>
				<path class="st2" d="M102.7-704.6c-4.5-1.1-7.2-0.6-9.8,1.9c-8.1,7.5-14.7,16-20.3,25.5c-2.2,3.7-0.8,7.4-0.6,11.2
					C79.1-681.2,88.8-693.8,102.7-704.6z"/>
				<path class="st2" d="M346.3-576.1c11.1,4.6,22.3,5.6,33.8,3.5c3.3-0.6,6.4-1.7,9.6-2.6c1.2-0.4,2.5-0.9,1.7-2.6
					c-0.5-1.1-1.1-2.3-2.7-2c-0.7,0.1-1.4,0.3-2,0.6c-11.7,3.8-23.5,3.9-35.2-0.1C348.5-580.4,347.1-579.6,346.3-576.1z"/>
				<path class="st2" d="M240-411.3c15.4,6,30.4,6,45.7-0.1c-2.3-4-2.3-4.2-5.2-3.2c-11.7,3.9-23.5,4-35.2,0
					C242.5-415.5,240.9-415,240-411.3z"/>
				<path class="st2" d="M452.5-411.3c15.4,6,30.4,6.1,45.5,0c-0.7-3.4-2.1-4.3-5-3.3c-11.9,4.1-23.8,4-35.6-0.1
					C454.6-415.6,453.4-414.6,452.5-411.3z"/>
				<path class="st2" d="M234.7-404c4.8,2,9.3,4.3,15,3.5c8.7-1.2,17.5-1.1,26.3,0c5.6,0.7,10.2-1.4,14.9-3.6
					c-1-3.3-2.6-3.9-5.7-2.8c-14.9,5.4-29.9,5.5-44.8,0C237.4-408,235.8-407.4,234.7-404z"/>
				<path class="st2" d="M128.6-568.8c4.8,2.3,9.4,4.3,15,3.5c8.6-1.2,17.3-1.2,25.8,0c5.7,0.8,10.2-1.2,15.5-3.6
					c-2.8-3.6-2.9-3.7-5.8-2.6c-15,5.3-30.1,5.3-45,0C131.1-572.7,129.5-572.3,128.6-568.8z"/>
				<path class="st2" d="M340.9-568.9c5,2.4,9.6,4.3,15.2,3.6c8.7-1.2,17.6-1.2,26.3,0c5.6,0.8,10.1-1.3,14.8-3.6
					c-1.1-3.1-2.5-3.9-5.3-2.8c-15.1,5.5-30.3,5.5-45.3,0C343.6-572.8,342.1-572.1,340.9-568.9z"/>
				<path class="st2" d="M447.3-403.8c5.2,2.1,10,4.1,15.9,3.3c8-1.2,16.2-1.2,24.2,0c5.8,0.8,10.7-1,15.9-3.5
					c-1.1-3.1-2.6-4-5.4-2.9c-15.1,5.6-30.3,5.6-45.5,0C449.3-408.2,448-407.1,447.3-403.8z"/>
				<path class="st2" d="M280.9-349.5c-7.2-2.9-14.4-3.9-21.8-3.3c-4.2,0.3-8.4,1-12.4,2.5c-1.2,0.5-2.4,1-1.6,2.6
					c0.5,1.2,1.2,2.2,2.7,2c0.7-0.1,1.4-0.3,2-0.5c8.7-2.5,17.4-2.5,26.1,0.1C278.7-345.2,280.3-345.8,280.9-349.5z"/>
				<path class="st2" d="M457.1-419.1c12.2,4.5,24.2,4.8,36.3-0.1c-0.6-3-1.5-4.4-4.7-3.4c-8.9,2.8-18,2.8-26.9,0
					C458.6-423.6,457.7-422.2,457.1-419.1z"/>
				<path class="st2" d="M245-420.7c-0.6,1.7,0.8,2.1,1.9,2.5c11.4,3.7,22.6,3.6,34-0.9c-0.7-2.3-0.8-4.6-4.1-3.6
					c-9.5,2.9-19,2.9-28.4-0.1C246.4-423.5,245.6-422.3,245-420.7z"/>
				<path class="st2" d="M493-347.8c0.7-2.5-1.5-2.4-2.8-2.9c-10-3.1-20-3.1-30,0c-1.3,0.4-3.6,0.3-2.8,2.8c0.7,2.5,2.4,2.5,4.6,1.8
					c4.2-1.4,8.5-2,12.9-1.9c4.8-0.2,9.4,0.5,14,2C490.9-345.3,492.4-345.7,493-347.8z"/>
				<path class="st2" d="M138.4-583.9c11.1,4.4,22,4.6,33.1,1.2c1.3-0.4,3.6-0.4,2.9-2.8c-0.6-2.4-2.2-2.5-4.5-1.8
					c-8.8,2.7-17.7,2.7-26.5,0C140.6-588.2,139.1-587.6,138.4-583.9z"/>
				<path class="st2" d="M351.2-585.6c-0.8,2.1,1.1,2.3,2.3,2.7c4.9,1.6,9.9,2.5,15,2.4c5.5,0.2,10.9-0.8,16.1-2.4
					c1.2-0.4,3.1-0.6,2.2-2.7c-0.6-1.6-1.4-2.7-3.6-2c-9.5,3-19,3-28.5,0C352.6-588.3,351.8-587.1,351.2-585.6z"/>
				<path class="st2" d="M174.4-512.8c0.7-2.7-1.9-2.5-3.4-3c-4.7-1.6-9.6-2-14.7-2.2c-4.7,0.2-9.6,0.6-14.3,2.3
					c-1.4,0.5-4,0.2-3.3,3c0.7,2.5,2.5,2.4,4.6,1.7c5.2-1.7,10.6-2.1,16.1-1.9c3.5,0.2,7,0.8,10.3,1.8
					C171.9-510.3,173.8-510.3,174.4-512.8z"/>
				<path class="st2" d="M386.9-512.8c0.7-2.1-1.1-2.2-2.4-2.6c-10.3-3.3-20.7-3.3-31,0c-1.3,0.4-3,0.6-2.3,2.7
					c0.6,1.7,1.6,2.6,3.6,2c9.5-3,19-2.9,28.6,0C385.3-510,386.3-511.2,386.9-512.8z"/>
				<path class="st2" d="M493.1-677.7c0.4-1.4-0.5-1.9-1.6-2.3c-11.5-3.7-23-3.7-34.3,0.7c0.3,3.8,2,4.3,5,3.4
					c8.6-2.6,17.3-2.6,25.9-0.1c0.8,0.2,1.7,0.6,2.6,0.6C492.2-675.3,492.7-676.6,493.1-677.7z"/>
				<path class="st2" d="M280.6-677.5c0.8-2.1-0.9-2.3-2.2-2.7c-5-1.7-10.2-2.4-15.5-2.4c-5.3,0-10.5,0.7-15.5,2.4
					c-1.2,0.4-3,0.5-2.4,2.6c0.5,1.7,1.5,2.7,3.5,2.1c9.5-3,19-3,28.4,0C278.9-674.9,279.9-675.7,280.6-677.5z"/>
				<path class="st2" d="M475-308.5c-3.2,0.2-6.3,3.3-6.4,6.5c-0.1,3.4,3.3,6.8,6.7,6.8c3.4,0,6.7-3.4,6.6-6.8
					C481.8-305.5,478.4-308.7,475-308.5z"/>
				<path class="st2" d="M475.7-460.1c3.3-0.2,6.2-3.4,6.2-6.7c0-3.5-3.3-6.6-6.8-6.5c-3.5,0.1-6.7,3.5-6.5,6.9
					C468.8-463,472.3-459.9,475.7-460.1z"/>
				<path class="st2" d="M276.9-669.3c0.7-2.1-0.9-2.3-2.2-2.7c-3.7-1.2-7.5-1.8-11.4-1.8c-4.2-0.1-8.4,0.5-12.4,1.8
					c-1.4,0.4-2.8,0.9-2,2.9c0.6,1.5,1.4,2.4,3.2,1.8c7.1-2,14.2-2.1,21.2-0.1C275.2-666.8,276.3-667.6,276.9-669.3z"/>
				<path class="st2" d="M142.5-593.7c-0.6,1.7,0.7,2.1,1.9,2.5c4,1.3,8.2,1.8,12.4,2c4-0.3,8-0.7,11.9-1.9c1.2-0.4,2.5-0.8,2-2.5
					c-0.4-1.4-1-2.8-2.9-2.2c-7.4,2-14.9,2.1-22.3,0C143.6-596.4,143-595.1,142.5-593.7z"/>
				<path class="st2" d="M355-593.7c-0.6,1.7,0.6,2.2,1.8,2.5c4,1.3,8.2,1.8,12.7,2c3.8-0.3,7.8-0.7,11.7-1.9
					c1.2-0.4,2.4-0.9,1.9-2.5c-0.4-1.4-0.9-2.8-2.8-2.2c-7.5,2.1-14.9,2.1-22.4,0C356-596.4,355.5-595.1,355-593.7z"/>
				<path class="st2" d="M262.5-460.1c3.4,0.2,6.9-3,7-6.4c0.1-3.3-3.2-6.8-6.7-6.8c-3.3,0-6.4,2.8-6.7,6.2
					C255.9-463.7,259-460.3,262.5-460.1z"/>
				<path class="st2" d="M476.2-638.1c-3.5-0.5-7.1,2.2-7.6,5.7c-0.5,3.3,2.4,7,5.9,7.4c3.5,0.4,6.9-2.5,7.3-6
					C482.1-634.3,479.5-637.6,476.2-638.1z"/>
				<path class="st2" d="M489.3-669.3c0.8-2.5-1.3-2.5-2.7-2.9c-3.7-1.1-7.5-1.8-11.8-1.6c-3.1-0.2-6.6,0.4-10,1.3
					c-1.5,0.4-4.5,0.1-3.6,3.2c0.7,2.6,2.7,2,4.7,1.5c4.6-1.1,9.3-1.6,14-0.8c1.7,0.3,3.5,0.5,5.1,1
					C487.1-666.9,488.6-667.1,489.3-669.3z"/>
				<path class="st2" d="M262.6-638.1c-3.4,0.1-6.3,3-6.4,6.4c-0.1,3.5,3.1,6.8,6.6,6.8c3.4,0,6.8-3.3,6.8-6.7
					C269.5-635.1,266.1-638.3,262.6-638.1z"/>
				<path class="st2" d="M262.5-308.5c-3.5,0.2-6.6,3.6-6.3,7.1c0.3,3.5,3.8,6.6,7.2,6.2c3.2-0.3,6.3-3.8,6.2-6.8
					C269.4-305.4,265.9-308.7,262.5-308.5z"/>
				<path class="st2" d="M156.7-473.3c-3.5-0.1-6.8,3.1-6.7,6.6c0,3.5,3.3,6.7,6.8,6.6c3.3-0.1,6.2-3,6.4-6.4
					C163.2-470.1,160.3-473.3,156.7-473.3z"/>
				<path class="st2" d="M369-473.3c-3.6,0-6.7,3.2-6.6,6.7c0.1,3.5,3.5,6.6,6.9,6.5c3.3-0.2,6.3-3.2,6.3-6.5
					C375.7-470.1,372.6-473.3,369-473.3z"/>
				<path class="st2" d="M170.6-504.3c0.7-2-0.6-2.5-2-2.9c-3.9-1.2-7.8-1.8-11.9-1.7c-4.1-0.1-8,0.5-11.9,1.7
					c-1.3,0.4-2.9,0.8-2.2,2.8c0.5,1.5,1.3,2.5,3.1,2c7.2-2.2,14.5-2.2,21.7,0C169.1-502,170-502.8,170.6-504.3z"/>
				<path class="st2" d="M368.7-625c3.5,0.2,6.8-2.9,7-6.4c0.1-3.5-2.9-6.7-6.5-6.8c-3.6,0-6.7,3.1-6.7,6.6
					C362.4-628.3,365.4-625.2,368.7-625z"/>
				<path class="st2" d="M248.9-429.3c-0.9,1.9,0.3,2.5,1.8,3c3.7,1.2,7.5,1.7,11.8,1.8c3.9-0.1,8.1-0.5,12.1-1.8
					c1.3-0.4,3-0.6,2.3-2.7c-0.6-1.6-1.3-2.7-3.5-2c-7.1,2.1-14.2,2.1-21.3,0C250.2-431.6,249.5-430.8,248.9-429.3z"/>
				<path class="st2" d="M461.3-429.1c-0.7,1.6,0.3,2.3,1.6,2.7c9,2.7,17.9,2.8,26.9-0.9c-0.7-2.1-0.7-4.5-3.6-3.7
					c-7.3,2-14.6,2.1-21.8-0.1C462.4-431.6,461.8-430.4,461.3-429.1z"/>
				<path class="st2" d="M383.2-505.2c0-1.5-1.2-1.7-2.1-2c-8.1-2.4-16.2-2.4-24.3,0.1c-1.2,0.4-2.4,0.9-1.7,2.6
					c0.5,1.4,1.2,2.6,3,2.1c7.4-2.2,14.8-2.1,22.3,0C382.5-501.8,382.8-503.7,383.2-505.2z"/>
				<path class="st2" d="M156.8-625c3.6-0.1,6.6-3.4,6.3-7.1c-0.2-3.5-3.2-6.2-6.7-6.1c-3.4,0.1-6.4,3.1-6.4,6.5
					C149.9-628.1,153.2-624.9,156.8-625z"/>
				<path class="st2" d="M489.5-340.1c0.1-1.1-0.6-1.6-1.5-1.9c-8.4-2.8-16.9-2.8-25.3-0.1c-1.4,0.4-2.1,1.3-1.4,2.8
					c0.5,1.1,1.1,2.3,2.7,1.9c7.4-2.2,14.8-2.3,22.3,0C488.5-336.9,488.9-338.7,489.5-340.1z"/>
				<path class="st2" d="M276.9-339.7c0.7-1.7-0.6-2.1-1.8-2.5c-3.9-1.3-7.8-1.9-11.9-1.8c-4.2-0.1-8.4,0.5-12.4,1.8
					c-1.1,0.4-2.5,0.8-2,2.5c0.4,1.3,0.9,2.9,2.9,2.3c7.4-2.2,14.9-2.3,22.3,0C275.8-336.9,276.4-338.3,276.9-339.7z"/>
				<path class="st2" d="M532.6-548.7c3.7,3.1,3.8,3.2,6.4,1.9c5-2.6,10.1-4.9,15.6-6.4c3-0.9,3.3-2.7,2.1-5.7
					C548.2-556.8,540.4-553.5,532.6-548.7z"/>
				<path class="st2" d="M486.2-331c0.6-1.9-0.7-2.5-2.1-2.9c-5.8-1.7-11.7-1.7-17.6-0.1c-1.7,0.5-2.9,1.2-2.2,3.3
					c0.6,1.7,1.7,2,3.3,1.5c2.5-0.8,5.2-0.9,8.7-1c1.5,0.2,4,0.4,6.3,1C484.6-328.8,485.7-329,486.2-331z"/>
				<path class="st2" d="M380-495.8c0.6-1.9-0.4-2.6-1.9-3c-6.1-1.8-12.1-1.8-18.2,0c-1.4,0.4-2.6,1.1-1.9,3
					c0.6,1.7,1.5,2.3,3.2,1.7c2.5-0.9,5.2-0.9,7.8-1c2.6,0.1,5.3,0.1,7.8,1C378.5-493.5,379.5-494.1,380-495.8z"/>
				<path class="st2" d="M273.8-330.9c0.6-1.9-0.6-2.6-2-3c-2.9-0.8-5.8-1.3-9.1-1.3c-2.7-0.1-5.7,0.5-8.5,1.2
					c-1.6,0.4-3.1,1-2.3,3.2c0.6,1.6,1.5,2.1,3.2,1.6c5.2-1.4,10.4-1.4,15.6,0C272.4-328.7,273.3-329.3,273.8-330.9z"/>
				<path class="st2" d="M167.5-495.7c0.6-1.9-0.3-2.6-1.8-3.1c-6-1.8-12.1-1.8-18.1,0c-1.5,0.4-2.4,1.2-1.9,3
					c0.5,1.8,1.5,2.3,3.1,1.7c2.5-0.9,5.2-0.9,8-1c2.4,0.1,5,0.1,7.5,1C165.9-493.6,166.9-494,167.5-495.7z"/>
				<path class="st2" d="M274-661.4c0-1.4-0.9-1.8-2-2.1c-6.2-1.9-12.4-1.9-18.6,0.1c-1.3,0.4-2.2,1.1-1.7,2.7
					c0.5,1.5,1.3,2.4,3.1,1.9c5.3-1.5,10.7-1.4,16,0C273.1-658.3,273.6-659.8,274-661.4z"/>
				<path class="st2" d="M251.8-437.6c-0.7,2.3,1.1,2.6,2.6,3c2.7,0.8,5.5,1.1,8.3,1.1c3,0.1,6-0.3,8.8-1.2c1.4-0.4,2.8-0.8,2.3-2.8
					c-0.4-1.9-1.4-2.5-3.4-2c-5,1.4-10.1,1.5-15.1,0C253.5-439.9,252.4-439.5,251.8-437.6z"/>
				<path class="st2" d="M486.2-660.7c0.6-1.9-0.5-2.5-2-3c-5.9-1.7-11.8-1.7-17.7,0c-1.4,0.4-2.7,1-2.2,2.9
					c0.4,1.7,1.4,2.3,3.1,1.9c5.2-1.4,10.4-1.4,15.7,0C484.7-658.3,485.7-659,486.2-660.7z"/>
				<path class="st2" d="M357.9-602.2c-0.5,1.7,0.5,2.2,1.8,2.6c2.9,0.9,5.8,1.2,9.5,1.3c2.5,0,5.7-0.3,8.7-1.2
					c1.5-0.5,2.7-0.9,2.1-2.9c-0.5-1.6-1.2-2.4-3-1.9c-5.4,1.6-10.8,1.5-16.2,0C358.9-604.8,358.4-603.6,357.9-602.2z"/>
				<path class="st2" d="M464.4-437.9c-0.6,1.7,0.1,2.7,1.7,3.2c3,0.9,6.1,1.4,9.3,1.3c3.2,0.1,6.3-0.4,9.3-1.4
					c1.4-0.4,2.1-1.3,1.5-2.8c-0.4-1.2-0.8-2.4-2.5-1.9c-5.5,1.6-11.1,1.7-16.6,0.1C465.6-439.9,464.8-439.2,464.4-437.9z"/>
				<path class="st2" d="M145.6-602.6c-0.5,1.8,0.2,2.6,1.9,3.1c2.9,0.9,5.8,1.2,8.8,1.3c3.2,0,6.3-0.3,9.4-1.3
					c1.6-0.5,2.4-1.2,1.9-3c-0.5-1.8-1.5-2.1-3.2-1.6c-5.2,1.5-10.4,1.4-15.6,0C147.1-604.6,146.1-604.4,145.6-602.6z"/>
				<path class="st2" d="M228.7-700.9c2.7,3.4,2.7,3.4,5.9,2.1c3.8-1.4,7.6-2.7,11.5-3.7c2.8-0.7,5.9-0.4,8.4-2.5
					C245.8-704.9,236.9-707.2,228.7-700.9z"/>
				<path class="st2" d="M296.9-701c-8.2-6.1-17.1-4.1-25.8-3.7c7.5,1.8,14.9,3.7,21.9,6.7C295-697.2,296-699.2,296.9-701z"/>
				<path class="st2" d="M360.3-611.3c-0.4,1.4-0.1,2.5,1.3,3c2.3,0.8,4.7,1.3,7.6,1.2c2.2,0.2,4.5-0.4,6.9-1.1
					c1.7-0.5,1.9-1.8,1.6-3.3c-0.4-1.6-1.4-1.7-2.8-1.3c-4,1-8,1-12-0.1C361.3-613.4,360.7-612.7,360.3-611.3z"/>
				<path class="st2" d="M147.9-611.3c-0.4,2,0.6,2.8,2.4,3.3c4,1.1,7.9,1.1,12,0.2c3.4-0.8,3.9-2.4,2-5.6
					c-4.5,1.3-8.6,1.6-12.8,0.6C149.9-613,148.3-613.8,147.9-611.3z"/>
				<path class="st2" d="M254.2-446.8c-0.5,1.6-0.2,2.8,1.5,3.3c2.4,0.8,4.8,1.1,8,1.3c1.6-0.3,3.8-0.7,6-1.2
					c1.6-0.4,2.4-1.4,1.9-3.1c-0.5-1.8-1.4-2.1-3.1-1.6c-3.8,1.1-7.7,1.1-11.5,0C255.6-448.5,254.7-448.3,254.2-446.8z"/>
				<path class="st2" d="M466.6-446.7c-0.5,1.6-0.2,2.9,1.6,3.3c2.4,0.6,4.8,1,7.3,1.5c2.4-0.5,4.9-1,7.2-1.6c1.4-0.4,1.7-1.5,1.3-3
					c-0.4-1.4-1-2.2-2.6-1.7c-4,1.2-8,1.2-12,0.1C467.9-448.6,467-448.3,466.6-446.7z"/>
				<path class="st2" d="M271.6-651.7c0.4-1.6,0-2.7-1.7-3.2c-2.2-0.7-4.4-1-6.8-1c-2.5,0-4.9,0.2-7.3,1c-1.7,0.6-2.2,1.5-1.7,3.2
					c0.4,1.5,1.3,2,2.7,1.5c4-1.3,8-1.2,12,0C270.3-649.8,271.2-650.2,271.6-651.7z"/>
				<path class="st2" d="M483.9-651.6c0.5-1.6,0.2-2.7-1.5-3.3c-2.3-0.8-4.7-1.1-7.2-1.1c-2.5,0-4.8,0.3-7.2,1.1
					c-1.8,0.6-1.9,1.8-1.5,3.3c0.4,1.6,1.4,1.8,2.8,1.3c3.9-1.2,7.9-1.2,11.8,0C482.6-649.8,483.5-650.1,483.9-651.6z"/>
				<path class="st2" d="M540.2-542.8c1.8,2.5,3.2,3.8,6,2.3c2.6-1.4,5.4-2.5,8.3-3.5c3.1-1.1,3.6-2.8,1.9-5.7
					C550.7-548.1,545.6-545.9,540.2-542.8z"/>
				<path class="st2" d="M483.9-321.8c0.4-1.6,0.3-2.8-1.5-3.3c-4.7-1.5-9.3-1.5-14-0.1c-1.6,0.5-2.3,1.4-1.9,3.1
					c0.4,1.9,1.6,2.1,3.2,1.6c3.8-1.2,7.6-1.2,10.7-0.1C482.5-320,483.5-320.2,483.9-321.8z"/>
				<path class="st2" d="M271.5-321.9c0.5-1.6,0.1-2.7-1.6-3.3c-2.3-0.9-4.8-0.9-7.2-1.1c-2.4,0.2-4.9,0.2-7.2,1.2
					c-1.4,0.6-1.7,1.6-1.3,3c0.4,1.4,1.1,2.1,2.7,1.7c4-1.2,7.9-1.2,11.9-0.1C270-320.1,271.1-320.4,271.5-321.9z"/>
				<path class="st2" d="M377.6-486.8c0.4-1.6,0.1-2.8-1.6-3.3c-4.8-1.5-9.6-1.5-14.4,0.1c-1.5,0.5-1.7,1.6-1.3,2.9
					c0.4,1.5,1.2,2.1,2.7,1.6c4-1.2,7.9-1.3,11.3-0.2C376.2-485.1,377.2-485.2,377.6-486.8z"/>
				<path class="st2" d="M165.2-486.8c0.5-2-0.2-2.9-2-3.5c-2.2-0.7-4.5-0.8-6.7-0.9c-2.3,0.1-4.5,0.2-6.7,1
					c-1.6,0.6-2.2,1.6-1.8,3.2c0.4,2,1.8,1.9,3.2,1.4c3.6-1,7.2-1.1,10.9,0C163.4-485.1,164.7-484.7,165.2-486.8z"/>
				<path class="st2" d="M162.3-481.1c-3.9-1.7-7.9-1.8-11.7,0.1c-2.3,1.2-1.6,3.1-0.5,5.2c4.1-1.7,8.4-2.1,12.8,0.3
					C164.1-478.1,164.7-480.1,162.3-481.1z"/>
				<path class="st2" d="M375.3-480.9c-2.4-1.8-9.4-1.9-12.2-0.2c-2.2,1.4-1.6,3.1-0.5,5.4c4.1-2.1,8.3-2.1,12.7-0.1
					C376.5-477.9,377.2-479.5,375.3-480.9z"/>
				<path class="st2" d="M268.6-645.9c-3.9-1.8-7.9-1.8-11.7,0.1c-2.5,1.2-1.1,3.2-0.8,5.4c4.5-2.2,8.7-2.3,13.3,0.1
					C270.1-642.8,271-644.8,268.6-645.9z"/>
				<path class="st2" d="M481.1-645.9c-2.7-1.8-10-1.7-12.1,0.3c-1.8,1.6-1,3.3-0.1,5.2c4.4-2.5,8.6-1.9,12.8-0.2
					C482.6-644.9,482.6-644.9,481.1-645.9z"/>
				<path class="st2" d="M150.7-617.3c3.9,1.8,7.9,1.8,11.7,0c2.4-1.1,1.7-3.1,0.6-5.2c-4.2,1.7-8.4,2.5-12.9-0.3
					C149-620.4,148.3-618.4,150.7-617.3z"/>
				<path class="st2" d="M365-616.6c2.8,0.7,5.6,0.7,8.3-0.1c3.3-0.9,4.2-2.7,1.8-6.1c-4.1,2.6-8.4,1.9-12.6,0.1
					C360.7-619.2,361.7-617.4,365-616.6z"/>
				<path class="st2" d="M268.5-316.2c-3.9-1.7-7.9-1.8-11.7,0.2c-2.5,1.3-1,3.2-0.7,5.7c4.5-2.9,8.7-2.5,13.3-0.2
					C270.1-313.1,271-315.1,268.5-316.2z"/>
				<path class="st2" d="M480.8-316.3c-3.9-1.7-7.9-1.7-11.6,0.3c-2.3,1.2-0.9,3.2-0.5,5.6c4.4-3,8.7-2.4,13.2-0.4
					C482.5-313.3,483.3-315.2,480.8-316.3z"/>
				<path class="st2" d="M259.4-451.6c2.3,0.5,4.6,0.5,6.8,0c4.1-0.9,4.4-1.8,2.7-6.2c-4,2.2-8,2.3-12.3-0.1
					C254.3-453.9,256.1-452.3,259.4-451.6z"/>
				<path class="st2" d="M232.1-235.7c-19.7-9.4-32.7-24.6-39.2-45.4c-2.5-7.8-2.6-15.9-3.2-24c-1.6-19.2-20.1-33.1-38.9-29.5
					c-15.7,3-26.8,15.9-27.3,31.9c-1.1,31.7-15.6,54.5-44.5,68c-0.7,0.3-1.2,0.7-1.2,1.6c3,2.1,5.9,1.9,9.2,0.1
					c7.9-4.5,15.1-9.8,21.1-16.5c13.2-14.8,19.9-32.2,20.2-52c0.1-9.2,3.5-16.9,10.8-22.5c9.2-7.1,19.5-8.1,29.9-3.2
					c10.7,5.1,15.7,14.1,16.1,25.9c1,30.1,14.6,52.7,40.5,67.9c3.3,2,6.4,2.8,10,0.3C235-235.2,233.3-235.1,232.1-235.7z"/>
				<path class="st2" d="M402.2-302.8c-0.6-20.7-19.6-35.8-39.8-31.7c-14.8,3-25.8,15.6-26.4,30.9c-1.2,32-15.4,55.3-44.8,68.9
					c-0.4,0.2-0.7,0.7-1.5,1.4c5.7,2.3,5.7,2.4,10.2-0.2c26-15.1,39.7-37.7,40.7-67.7c0.3-9.4,3.5-17.3,10.9-23
					c9.2-7.1,19.5-8.1,29.9-3.1c10.6,5.1,15.7,14.1,16.1,25.9c0.9,30.6,15,53.2,41.4,68.4c3.3,1.9,6.1,1.9,9.5-0.5
					c-2.2-1.9-4.8-2.5-7-3.7C415.8-251.6,403-273.7,402.2-302.8z"/>
				<path class="st2" d="M222.9-230.4c-27.7-16.4-41.2-40.9-42-72.8c-0.2-9.6-6.9-18.2-16.1-21.6c-15.8-5.8-32.4,5.9-32.7,23.3
					c-0.4,20-6.7,37.6-19.6,52.9c-6.5,7.8-14.4,13.9-23.6,19.1c3.1,3.3,5.5,2.5,8.4,0.6c20.3-13.6,33-32.3,38.1-56.2
					c1.3-6.1,1.2-12.2,1.7-18.4c0.8-9,7.1-15.8,15.8-17.5c8.1-1.6,16.6,2.4,20.6,9.6c2.1,3.8,2.5,7.9,2.7,12.2
					c1.4,30.3,15,53.7,40.1,70.6c2.8,1.9,5,1.9,7.5-0.6C223.5-229.7,223.3-230.2,222.9-230.4z"/>
				<path class="st2" d="M393.5-301.6c-0.1-3.2-0.6-6.3-1.8-9.3c-4.5-11-15.7-17.1-27.4-14.9c-11.1,2.1-19.3,11.9-19.6,23.7
					c-0.5,23.3-8.7,43.3-25.5,59.6c-5.2,5-11.2,9-17.7,13c3,2.8,5.2,2.5,8,0.7c19.2-12.7,31.8-30.1,37.5-52.5
					c1.9-7.4,2.1-15,2.8-22.5c0.9-10.5,9.3-17.8,19.6-17.6c10.1,0.1,17.9,7.4,19,17.7c0.2,2.1,0.2,4.2,0.4,6.3
					c2.1,29.4,15.5,52.2,39.9,68.6c2.9,1.9,5.2,2.1,7.7-0.7c-0.6-0.5-0.9-0.9-1.4-1.2C408.2-246.7,394.5-270.5,393.5-301.6z"/>
				<path class="st2" d="M213.8-225.3c-1-0.7-2-1.5-3-2.2c-19.8-14.1-32.1-33.2-37.1-57c-1.4-6.6-1-13.3-2-19.9
					c-1-6.3-5.7-11.2-12-12.6c-6-1.4-12.5,1.4-16.1,6.7c-2.3,3.4-2.6,7.2-2.7,11.1c-0.7,20.2-7.3,38.2-19.7,54.1
					c-6.3,8-13.9,14.4-22.6,20.4c4,3,4,3.1,7.1,0.9c15-10.7,26-24.6,33.1-41.6c4.8-11.5,7-23.5,7.3-36c0.1-6.5,4.6-10.9,10.5-10.9
					c5.9,0,10.2,4.4,10.6,10.8c0.2,4,0.4,8.1,1,12.1c3.8,27.6,17.3,49.5,39.7,65.9c2.8,2,4.6,1.5,6.4-1
					C214-225,214-225.2,213.8-225.3z"/>
				<path class="st2" d="M384.8-298.7c-0.1-2.1-0.2-4.2-0.6-6.3c-1.3-6.7-7.3-11.9-14-12.4c-6.8-0.5-13.4,3.8-15.7,10.2
					c-1,2.7-1,5.5-1.1,8.3c-1.4,29.5-13.9,53-37.6,70.7c-1.5,1.1-3.4,1.8-4.3,3.6c2.2,3.3,4.5,2.3,7.1,0.4
					c15.9-11.7,27.4-26.7,34.2-45.3c3.8-10.5,5.6-21.4,5.8-32.6c0.1-6.1,4.7-10.4,10.4-10.5c5.7-0.1,10.2,4.2,10.7,10.2
					c0.1,1.4,0,2.8,0.1,4.2c1.8,30.7,15,55.2,39.6,73.7c2.6,2,5,3.3,7.4-0.6c-1.2-0.9-2.3-1.7-3.4-2.5
					C399.2-245.1,386.2-268.7,384.8-298.7z"/>
				<path class="st2" d="M108.2-218.7c1.6,2.4,3.2,2.9,6.1,1.5c28.2-14.1,56.5-14.1,84.7,0.1c2.9,1.5,4.4,0.7,6.1-1.5
					C177.9-237.4,134.2-236.9,108.2-218.7z"/>
				<path class="st2" d="M320-219.3c3.7,3.4,3.7,3.4,6.7,2c28.3-13.9,56.5-14,84.7,0.2c3.1,1.5,4.7,0.8,6.1-2.4
					C385-237.1,352.9-237,320-219.3z"/>
				<path class="st2" d="M328.1-212.9c1.3,2.6,2.9,3.3,5.8,2c23.2-10.6,46.6-10.7,69.9-0.1c2.8,1.3,4.6,1.1,6.2-2
					C385.8-227.7,349.7-226.7,328.1-212.9z"/>
				<path class="st2" d="M115.8-212.9c2.7,3.2,2.7,3.3,5.8,1.9c23.3-10.5,46.6-10.5,69.9,0c2.9,1.3,4.6,0.9,6.1-2.1
					C172.4-228,136.5-226.4,115.8-212.9z"/>
				<path class="st2" d="M122.5-206.3c1.4,2.9,3,3.3,5.7,2.2c19-7.8,38-7.8,57,0c3,1.3,4.5,0.3,5.4-2.5
					C172.5-217.5,139.2-217.5,122.5-206.3z"/>
				<path class="st2" d="M335.1-206c1.2,2.6,2.8,3,5.5,1.9c19-7.8,38-7.8,56.9,0c2.8,1.1,4.3,0.5,5.6-2.4
					C383.9-218.1,350.1-217.1,335.1-206z"/>
				<path class="st2" d="M341-200c0.9,3.6,2.5,4.2,5.6,3.1c15-5.6,30-5.6,45,0c3,1.1,4.7,0.6,5.6-3C378.4-208,359.8-207.9,341-200z"
					/>
				<path class="st2" d="M128.5-199.9c1,3.7,2.8,4.1,5.7,3c15-5.5,30-5.5,44.9,0.1c3,1.1,4.7,0.6,5.5-3.1
					C165.8-208,147.2-208,128.5-199.9z"/>
				<path class="st2" d="M346.4-246.3c15.2,6,30.2,6,45.4,0c-0.7-3.8-2.4-4.3-5.4-3.3c-11.5,3.9-23.2,3.9-34.7,0
					C348.7-250.6,347-250.1,346.4-246.3z"/>
				<path class="st2" d="M133.9-246.4c15.2,6.1,30.2,6,45.4,0.1c-0.6-3.3-1.7-4.5-4.8-3.4c-11.9,4.1-23.8,4.1-35.7,0
					C135.8-250.8,134.5-249.7,133.9-246.4z"/>
				<path class="st2" d="M346.3-192.5c2,4.2,2,4.3,5.4,3.2c11.6-3.7,23.2-3.9,34.7,0.1c3,1,4.7,0.5,5.4-3.2
					C376.6-198.6,361.5-198.5,346.3-192.5z"/>
				<path class="st2" d="M133.9-192.6c1.9,4.1,1.9,4.3,4.8,3.4c11.9-3.9,23.9-4.1,35.7,0c3,1,4.3,0,5-3.4
					C164.1-198.6,149.1-198.6,133.9-192.6z"/>
				<path class="st2" d="M128.6-239.1c4.7,2.2,9.3,4.3,14.9,3.5c8.9-1.3,17.9-1.2,26.8,0c5.4,0.8,9.8-1.4,14.3-3.6
					c-0.9-3.5-2.7-3.8-5.6-2.8c-14.9,5.5-29.9,5.5-44.8,0C131.2-243.1,129.5-242.6,128.6-239.1z"/>
				<path class="st2" d="M341-239.1c5.2,2.4,10.1,4.3,15.9,3.4c8.4-1.3,16.9-1.2,25.2,0.1c5.6,0.8,10.2-1.2,15-3.6
					c-0.9-2.8-2.1-4.1-5-2.9c-15.2,5.7-30.6,5.8-45.8,0.1C343-243.3,341.8-242,341-239.1z"/>
				<path class="st2" d="M138.4-254.3c11.1,4.5,22,4.6,33.1,1.3c1.3-0.4,3.6-0.4,2.9-2.8c-0.7-2.4-2.3-2.5-4.5-1.8
					c-8.8,2.7-17.7,2.7-26.5,0.1C140.5-258.5,139.1-257.9,138.4-254.3z"/>
				<path class="st2" d="M172.2-185.7c-5-1.7-10.2-2.5-15.5-2.6c-5.3,0.1-10.5,0.9-15.5,2.6c-1.2,0.4-3.1,0.5-2.4,2.6
					c0.5,1.6,1.5,2.8,3.5,2.1c9.5-3,19-3,28.5,0c2,0.6,3-0.3,3.7-1.9C175.2-185,173.5-185.3,172.2-185.7z"/>
				<path class="st2" d="M353.1-185.6c-1.4,0.5-2.7,1-1.8,3c0.8,1.7,2,2.1,3.8,1.5c9.1-2.8,18.3-2.8,27.5-0.1
					c2.8,0.9,3.9-0.3,4.5-3.1C375.9-190.1,361.2-188.5,353.1-185.6z"/>
				<path class="st2" d="M351-254.7c7.4,5.2,28.2,5.4,36.1,0.1c-0.5-2.6-1.3-4-4.5-3c-9,2.8-18,2.7-27,0
					C352.4-258.6,351.5-257.3,351-254.7z"/>
				<path class="st2" d="M368.9-143.7c-3.4,0.1-6.7,3.5-6.5,6.9c0.1,3.3,3.2,6.3,6.5,6.4c3.5,0.1,6.8-3.2,6.8-6.6
					C375.7-140.5,372.4-143.8,368.9-143.7z"/>
				<path class="st2" d="M156.2-143.7c-3.2,0.2-6.3,3.4-6.3,6.6c0,3.5,3.2,6.8,6.7,6.7c3.5,0,6.6-3.2,6.4-6.9
					C163-140.8,159.7-143.9,156.2-143.7z"/>
				<path class="st2" d="M368.7-295.2c3.4,0.2,6.8-2.9,7-6.4c0.1-3.5-3-6.8-6.5-6.9c-3.2-0.1-6.4,2.9-6.7,6.2
					C362.2-298.9,365.2-295.4,368.7-295.2z"/>
				<path class="st2" d="M156.6-295.2c3.5,0,6.5-3.3,6.4-6.9c-0.1-3.6-3.3-6.6-6.9-6.4c-3.3,0.2-6.3,3.3-6.3,6.6
					C149.9-298.5,153.2-295.2,156.6-295.2z"/>
				<path class="st2" d="M355-264.3c-0.8,2,0.6,2.5,1.9,2.9c3.7,1.2,7.5,1.6,12.5,1.7c3.2,0,7.4-0.4,11.5-1.7
					c1.4-0.4,2.8-0.9,2.2-2.9c-0.5-1.5-1.2-2.5-3-2c-7.3,2.2-14.6,2.2-21.8,0C356.4-266.7,355.7-265.8,355-264.3z"/>
				<path class="st2" d="M142.6-264.4c-0.8,1.9,0.4,2.5,1.8,3c4.1,1.3,8.2,1.7,12.5,1.8c3.9-0.1,7.7-0.5,11.4-1.7
					c1.3-0.4,2.9-0.7,2.3-2.7c-0.5-1.8-1.4-2.6-3.5-2c-7.1,2.1-14.2,2.1-21.3,0C144.1-266.6,143.3-265.9,142.6-264.4z"/>
				<path class="st2" d="M381.5-177.4c-9-2.6-17.9-2.7-26.8,0.8c0.5,2.2,0.4,4.6,3.4,3.7c7.3-2,14.6-2.1,21.8,0
					c1.8,0.6,2.6-0.3,3.1-1.8C383.6-176.1,382.8-177,381.5-177.4z"/>
				<path class="st2" d="M168-177.7c-3.7-1.2-7.6-1.5-11.4-1.5c-3.9,0-7.7,0.4-11.4,1.5c-1.4,0.4-3.3,0.7-2.5,3.1
					c0.6,1.8,1.7,2.3,3.7,1.7c6.9-2,13.9-2,20.8,0c2,0.6,3,0,3.6-1.8C171.3-177.1,169.4-177.3,168-177.7z"/>
				<path class="st2" d="M378.3-169c-3.1-0.9-6.2-1.5-9.4-1.4c-3-0.1-6,0.5-8.9,1.2c-1.4,0.4-2.8,0.9-2.1,2.9c0.5,1.5,1.1,2.5,3,1.9
					c5.4-1.5,10.8-1.5,16.2,0c1.9,0.6,2.4-0.6,2.9-2.1C380.6-168.1,379.6-168.7,378.3-169z"/>
				<path class="st2" d="M165.3-169.2c-2.9-0.8-5.8-1.3-8.8-1.2c-3-0.1-5.9,0.5-8.8,1.2c-1.5,0.4-2.5,1.1-2,3c0.5,1.7,1.2,2.3,3,1.8
					c5.2-1.5,10.4-1.5,15.6-0.1c1.6,0.5,2.6,0.3,3.2-1.5C168.2-168.1,167-168.8,165.3-169.2z"/>
				<path class="st2" d="M358-272.4c-0.5,1.7,0.6,2.2,1.8,2.6c2.9,0.8,5.8,1.5,8.8,1.3c3.2,0.2,6.3-0.3,9.4-1.2c1.4-0.4,2.6-1,2-2.9
					c-0.5-1.6-1.2-2.4-3.1-1.8c-5.4,1.5-10.8,1.5-16.2,0C358.9-275.1,358.4-273.9,358-272.4z"/>
				<path class="st2" d="M145.6-272.6c-0.5,2,0.7,2.5,2.2,2.9c2.9,0.8,5.8,1.4,8.8,1.2c3,0.2,5.9-0.4,8.8-1.2
					c1.4-0.4,2.7-0.9,2.2-2.9c-0.5-2-1.5-2.4-3.5-1.8c-5,1.4-10.1,1.4-15.1,0C147.1-275,146.1-274.7,145.6-272.6z"/>
				<path class="st2" d="M376.5-160.2c-5-1.8-9.9-1.7-14.9,0c-1.5,0.5-1.6,1.6-1.2,3c0.4,1.5,1.2,2.1,2.7,1.6
					c1.8-0.6,3.8-0.8,5.7-0.8c2.1,0,4.2,0.1,6.2,0.8c1.4,0.5,2.4,0.2,2.8-1.4C377.9-158.4,377.9-159.7,376.5-160.2z"/>
				<path class="st2" d="M163.7-160.4c-2.3-0.8-4.8-1.1-8.1-1.2c-1.4,0.3-3.6,0.6-5.9,1.1c-1.6,0.4-2.2,1.5-1.9,3.2
					c0.4,1.9,1.5,2,3.1,1.5c3.8-1.1,7.6-1.1,11.4,0.1c1.3,0.4,2.4,0.4,2.8-1.3C165.6-158.6,165.4-159.8,163.7-160.4z"/>
				<path class="st2" d="M360.3-281.8c-0.5,1.7,0,2.8,1.6,3.3c2.4,0.7,4.8,1.1,7.3,1.1c2.4-0.2,4.8-0.4,7.1-1.3
					c1.5-0.6,1.5-1.7,1.3-3c-0.3-1.5-1.2-2-2.7-1.6c-4,1.2-7.9,1.2-11.9,0C361.7-283.6,360.8-283.3,360.3-281.8z"/>
				<path class="st2" d="M147.9-281.8c-0.5,1.9,0.4,3.1,2.2,3.5c2,0.4,4.1,0.7,6.4,1.1c2.1-0.4,4.4-0.7,6.6-1.1
					c1.8-0.4,2.7-1.4,2.2-3.4c-0.5-2-1.7-1.8-3.2-1.4c-3.6,1-7.3,1-10.9,0C149.7-283.5,148.4-283.7,147.9-281.8z"/>
				<path class="st2" d="M375.4-151.1c-2.3-1.8-9.5-1.9-12.3-0.2c-2.3,1.4-1.6,3.1-0.6,5.3c4.3-2.1,8.7-2,13-0.1
					C376.5-148.1,377.3-149.7,375.4-151.1z"/>
				<path class="st2" d="M162.2-151.4c-3.9-1.6-7.9-1.8-11.7,0.2c-2.4,1.3-1.2,3.2-0.4,5.4c4.3-2.5,8.6-2.5,13,0
					C164.1-148.4,164.7-150.4,162.2-151.4z"/>
				<path class="st2" d="M363-287.6c2.6,1.7,9.8,1.6,12.3-0.1c2-1.4,1.2-3,0.1-5.5c-4.4,2.9-8.6,2.3-12.8,0.2
					C361.6-290.8,360.8-289.1,363-287.6z"/>
				<path class="st2" d="M150.7-287.6c3.9,1.9,7.9,1.8,11.8,0c2.4-1.1,1.6-3.1,0.7-5.3c-4.3,2-8.7,2.2-13-0.1
					C149.1-290.7,148.3-288.8,150.7-287.6z"/>
				<path class="st2" d="M503.8-70c-19,7.7-38,7.8-57-0.1c-3.1-1.3-4.5-0.4-5.7,2.8c22.9,10.6,45.4,10.6,68.6-0.1
					C506.6-71,506.6-71.1,503.8-70z"/>
				<path class="st2" d="M503.4-74.1c-1.1-3.6-2.8-4.1-5.7-3c-14.9,5.6-30,5.5-44.9,0c-3-1.1-4.6-0.4-5.6,3.1
					C466-66.2,484.6-66.2,503.4-74.1z"/>
				<path class="st2" d="M497.8-82.3c-1.9-3.3-2-3.5-4.9-2.5c-11.7,3.8-23.5,3.9-35.2-0.1c-2.8-1-4.3-0.3-5.1,2.8
					C464.2-75.2,488.8-75.6,497.8-82.3z"/>
				<path class="st2" d="M490.2-88.2c1.3-0.4,3.5-0.4,2.9-2.8c-0.7-2.5-2.4-2.4-4.6-1.8c-8.8,2.7-17.6,2.7-26.4,0
					c-2.9-0.9-4.3-0.1-5,3.4C468.2-85,479.1-84.9,490.2-88.2z"/>
				<path class="st2" d="M475.2-130.4c3.5,0.1,6.7-3.2,6.7-6.7c0-3.5-3.4-6.7-6.8-6.6c-3.4,0.1-6.7,3.6-6.5,7
					C468.8-133.5,472-130.4,475.2-130.4z"/>
				<path class="st2" d="M463.6-96.5c3.7,1.1,7.5,1.7,11.4,1.6c4.1,0.2,8-0.4,11.9-1.6c1.2-0.4,3-0.5,2.4-2.7
					c-0.5-1.6-1.4-2.8-3.5-2.1c-7.1,2.1-14.2,2.1-21.2,0c-2.1-0.6-3,0.5-3.4,2.1C460.6-97.1,462.4-96.9,463.6-96.5z"/>
				<path class="st2" d="M466.3-105c2.7,0.7,5.4,1.3,8.3,1.3c3.4,0.1,6.6-0.5,9.8-1.4c1.5-0.4,2.4-1.3,1.8-3.1
					c-0.6-1.6-1.5-2.1-3.2-1.6c-5.2,1.4-10.4,1.4-15.5,0c-1.7-0.5-2.7,0.1-3.2,1.7C463.8-106.2,464.8-105.4,466.3-105z"/>
				<path class="st2" d="M468.2-113.7c2.4,0.8,4.8,1,7.3,1c2.5-0.1,4.9-0.2,7.2-1.2c1.4-0.6,1.6-1.6,1.3-3c-0.4-1.5-1.2-2.1-2.7-1.6
					c-4,1.3-7.9,1.3-11.9,0c-1.4-0.4-2.4-0.1-2.8,1.4C466.1-115.3,466.6-114.3,468.2-113.7z"/>
				<path class="st2" d="M469.5-122.7c3.9,1.8,7.9,1.8,11.7-0.1c2.4-1.2,1.3-3.2,0.6-5.3c-4.4,2.3-8.8,2.1-13.1,0
					C468-125.8,467.1-123.8,469.5-122.7z"/>
				<path class="st2" d="M291.3-70c-18.9,7.8-38,7.9-56.9,0c-2.8-1.1-4.3-0.6-5.7,2.2c18.4,11.6,51.9,11.2,68-0.2
					C295.6-70.5,294.2-71.2,291.3-70z"/>
				<path class="st2" d="M290.9-74.3c-1.2-3.3-2.7-4-5.5-3c-15.1,5.7-30.3,5.7-45.4,0c-2.9-1.1-4.2-0.1-5.4,3.1
					C253.7-66.2,272.2-66.1,290.9-74.3z"/>
				<path class="st2" d="M285.6-81.6c-0.9-3.5-2.3-4.3-5.2-3.3c-11.7,4-23.5,4-35.2,0c-3.2-1.1-4.4,0.1-5.1,3.4
					C255.3-75.6,270.3-75.5,285.6-81.6z"/>
				<path class="st2" d="M246.8-88.6c11.4,3.8,22.7,3.6,34-0.8c-0.4-3.7-2-4.3-5.1-3.4c-7.2,2.2-14.6,2.4-22,1
					c-1.9-0.4-3.8-0.9-5.6-1.4c-1.8-0.4-2.6,0.7-3.2,2.1C244.3-89.4,245.6-89,246.8-88.6z"/>
				<path class="st2" d="M262.6-130.4c3.4,0.1,6.9-3.2,7-6.6c0-3.3-3.5-6.8-6.8-6.8c-3.2,0-6.4,3.1-6.6,6.3
					C256-133.9,259.1-130.5,262.6-130.4z"/>
				<path class="st2" d="M251.3-96.4c3.7,1.1,7.5,1.7,11.8,1.5c3.5,0.2,7.3-0.4,11-1.5c1.4-0.4,3.4-0.5,2.6-3
					c-0.6-1.7-1.6-2.4-3.6-1.8c-6.9,2-13.9,2.1-20.8,0c-1.9-0.6-3-0.1-3.6,1.7C248-97.1,250-96.8,251.3-96.4z"/>
				<path class="st2" d="M253.6-105c2.9,0.8,5.8,1.4,9.4,1.4c2.6,0.1,5.6-0.5,8.7-1.3c1.4-0.4,2.7-1,2.1-2.9
					c-0.5-1.6-1.3-2.3-3.1-1.9c-5.4,1.4-10.7,1.4-16.1-0.1c-1.9-0.5-2.5,0.7-2.9,2.1C251.3-106,252.4-105.4,253.6-105z"/>
				<path class="st2" d="M256-113.6c2.2,0.7,4.5,0.9,7.2,1c2-0.1,4.4-0.2,6.8-1.1c1.7-0.6,2-1.7,1.5-3.3c-0.5-1.6-1.5-1.7-2.9-1.3
					c-3.8,1.1-7.6,1.2-11.4,0c-1.6-0.5-2.7-0.2-3.2,1.6C253.6-114.9,254.5-114.1,256-113.6z"/>
				<path class="st2" d="M256.9-122.8c3.9,1.8,7.9,1.8,11.8,0c2.4-1.1,1.4-3.2,0.9-5.7c-4.6,2.7-8.9,2.4-13.6,0
					C256-126,254.3-124,256.9-122.8z"/>
			</g>
		</g>
	</g>
</pattern>
<circle class="st3" cx="153.2" cy="153" r="152.4"/>
<g>
	<defs>
		<circle id="SVGID_3_" cx="153.2" cy="153" r="135"/>
	</defs>
	<clipPath id="SVGID_4_">
		<use xlink:href="#SVGID_3_"  style="overflow:visible;"/>
	</clipPath>
	<defs>
		<filter id="Adobe_OpacityMaskFilter" filterUnits="userSpaceOnUse" x="-329.7" y="-197.1" width="650.5" height="650.5">
			<feColorMatrix  type="matrix" values="1 0 0 0 0  0 1 0 0 0  0 0 1 0 0  0 0 0 1 0"/>
		</filter>
	</defs>
	<mask maskUnits="userSpaceOnUse" x="-329.7" y="-197.1" width="650.5" height="650.5" id="SVGID_5_">
		<g class="st4">
			<linearGradient id="SVGID_6_" gradientUnits="userSpaceOnUse" x1="-9.3269" y1="-30.7519" x2="-9.3269" y2="339.94">
				<stop  offset="0" style="stop-color:#FFFFFF"/>
				<stop  offset="1" style="stop-color:#000000"/>
			</linearGradient>
			<rect x="-722.8" y="-198.5" class="st5" width="1426.9" height="644"/>
		</g>
	</mask>
	<g class="st6">
		<pattern  id="SVGID_7_" xlink:href="#New_Pattern_3" patternTransform="matrix(1 0 0 1 -2188.1826 358.5059)">
		</pattern>
		<path class="st7" d="M-4.5,453.4L-4.5,453.4c-179.6,0-325.2-145.6-325.2-325.2v0c0-179.6,145.6-325.2,325.2-325.2h0
			c179.6,0,325.2,145.6,325.2,325.2v0C320.8,307.8,175.2,453.4-4.5,453.4z"/>
	</g>
</g>
<ellipse class="st8" cx="306.1" cy="226.3" rx="77.1" ry="73.6"/>
</svg>
