<?xml version="1.0" encoding="utf-8"?>
<!-- Generator: Adobe Illustrator 21.0.0, SVG Export Plug-In . SVG Version: 6.00 Build 0)  -->
<svg version="1.1" id="Layer_1" xmlns="http://www.w3.org/2000/svg" xmlns:xlink="http://www.w3.org/1999/xlink" x="0px" y="0px"
	 viewBox="0 0 438.4 173.5" style="enable-background:new 0 0 438.4 173.5;" xml:space="preserve">
<style type="text/css">
	.st0{fill:#0054FF;}
</style>
<g>
	<path class="st0" d="M115.6,86c3.3,0,6.8-0.5,10.3-1.4c3.6-0.9,6.4-2.3,8.6-4.1c1.2-0.9,2.1-2.1,3-3.4c0.8-1.4,1.2-3,1.2-4.8
		c0-2.6-0.8-4.5-2.5-5.9c-1.7-1.4-3.9-2.5-6.7-3.4c-1.5,2.4-3.1,4.2-4.9,5.3c-1.8,1.1-4,1.7-6.7,1.7c-2.1,0-3.8-0.7-5.1-2.1
		c-1.3-1.4-2.1-3.4-2.2-5.9h4.9c3.1,0,6.3-0.3,9.6-0.9c3.3-0.6,6.3-1.6,8.9-3.1c2.7-1.5,4.9-3.5,6.6-6c1.7-2.6,2.6-5.8,2.6-9.9
		c0-1.6-0.3-3.3-0.9-5.1c-0.6-1.8-1.7-3.4-3.1-5c-1.5-1.5-3.4-2.8-5.9-3.8c-2.5-1-5.6-1.5-9.4-1.5c-5.7,0-10.7,0.9-14.9,2.8
		c-4.2,1.9-7.7,4.5-10.5,7.7c-2.8,3.2-4.9,7-6.2,11.3c-1.4,4.3-2,8.8-2,13.6c0,3.4,0.5,6.6,1.6,9.5c1,2.9,2.6,5.4,4.7,7.5
		c2.1,2.1,4.7,3.8,7.9,5.1C107.6,85.4,111.3,86,115.6,86z M115.1,43.9c1.6-1.6,3.5-2.4,5.7-2.4c1.3,0,2.2,0.3,2.8,1
		c0.5,0.7,0.8,1.4,0.8,2.3c0,1.2-0.3,2.2-0.9,3c-0.6,0.9-1.4,1.5-2.4,2c-1,0.5-2.1,0.9-3.3,1.2c-1.2,0.3-2.4,0.4-3.6,0.4
		c-0.4,0-0.8,0-1.1,0s-0.8,0-1.3-0.1C112.4,48,113.5,45.5,115.1,43.9z M190,84.8c-1.9,0.5-4.1,0.8-6.6,0.8c-4.4,0-7.5-0.8-9.3-2.4
		c-1.8-1.6-2.6-4-2.6-7.3c0-0.4,0-1,0.1-1.9c0.1-0.9,0.2-2,0.5-3.2l3.5-20.7c0.1-0.4,0.1-0.8,0.2-1.3c0-0.5,0.1-0.9,0.1-1.3
		c0-1-0.2-1.8-0.7-2.3c-0.5-0.5-1.3-0.8-2.4-0.8c-1.5,0-2.7,0.5-3.6,1.5c-0.9,1-1.4,2.3-1.6,3.8l-5.8,34.4h-22.6l9.4-55.5
		c1.3-0.3,2.7-0.5,4-0.7c1.4-0.2,3-0.2,4.9-0.2c3.5,0,6.2,0.5,8.1,1.6c1.9,1,3.1,2.5,3.5,4.2c1.4-1.6,3.4-3.2,6-4.7
		c2.6-1.5,6-2.3,10.2-2.3c2.5,0,4.6,0.4,6.4,1.2c1.8,0.8,3.2,1.9,4.4,3.4c1.1,1.4,2,3.1,2.5,4.9c0.5,1.9,0.8,3.8,0.8,5.9
		c0,1.7-0.1,3.3-0.3,4.9c-0.2,1.5-0.5,3.1-0.8,4.8l-3.1,18.7c-0.2,1.1-0.3,2.2-0.5,3.3c-0.2,1.1-0.2,2.2-0.2,3.3
		c0,1.1,0,2.1,0.1,3.1c0.1,1,0.3,2,0.6,3C193.6,83.8,192,84.3,190,84.8z M198.9,72.7l7.4-43.9c1.3-0.3,2.7-0.5,4.1-0.7
		c1.4-0.2,3.1-0.2,5.1-0.2c2.4,0,4.4,0.3,6,0.8c1.6,0.5,2.8,1.3,3.7,2.2c0.9,0.9,1.5,2,1.8,3.1c0.3,1.2,0.5,2.4,0.5,3.6
		c0,0.4,0,0.8-0.1,1.1c0,0.3-0.1,0.7-0.2,1.1L222,70.5c-0.2,1.1-0.3,2.2-0.5,3.3c-0.2,1.1-0.2,2.2-0.2,3.3c0,1.1,0,2.1,0.1,3.1
		c0.1,1,0.3,2,0.6,3c-1.3,0.6-2.9,1.2-4.9,1.7c-1.9,0.5-4.1,0.8-6.6,0.8c-4.4,0-7.5-0.8-9.3-2.4c-1.8-1.6-2.6-4-2.6-7.3
		C198.6,74.9,198.7,73.8,198.9,72.7z M208.8,15.9c-0.4-1.1-0.6-2.2-0.6-3.3c0-2.2,0.3-4,1-5.6c0.7-1.5,1.6-2.8,2.8-3.9
		c1.2-1,2.5-1.8,4.1-2.3c1.5-0.5,3.2-0.8,4.9-0.8c1.6,0,3.1,0.3,4.4,0.8c1.3,0.5,2.4,1.3,3.3,2.1c0.9,0.9,1.5,1.9,2,3
		c0.5,1.1,0.7,2.2,0.7,3.3c0,2.2-0.3,4-1,5.6c-0.7,1.5-1.6,2.8-2.8,3.9c-1.2,1-2.5,1.8-4.1,2.3c-1.5,0.5-3.2,0.8-4.9,0.8
		c-1.7,0-3.2-0.3-4.5-0.8c-1.3-0.5-2.4-1.3-3.3-2.1C209.9,18,209.2,17,208.8,15.9z M272,85.5c-3.3,0-5.7-0.4-7.5-1.2
		c-1.7-0.8-3.2-2.5-4.2-5.1c-0.8,0.9-1.6,1.7-2.4,2.5c-0.9,0.8-1.9,1.5-3.1,2.1c-1.2,0.6-2.7,1.1-4.4,1.5c-1.7,0.4-3.8,0.6-6.3,0.6
		c-5.1,0-8.9-1.4-11.5-4.1c-2.6-2.7-3.8-6.3-3.8-10.7c0-1.7,0.1-3.5,0.3-5.3c0.2-1.9,0.5-3.6,0.8-5.2l5.5-32.3
		c1.2-0.4,2.6-0.7,4.2-1c1.5-0.3,3.2-0.5,5-0.5c4.4,0,7.5,0.8,9.3,2.4c1.8,1.6,2.7,4,2.6,7.3c0,0.4,0,0.8-0.1,1.3
		c0,0.5-0.1,0.9-0.2,1.3l-4.2,24.6c-0.1,0.4-0.1,0.8-0.2,1.3c0,0.5-0.1,0.9-0.1,1.3c0,0.9,0.2,1.7,0.6,2.2c0.4,0.5,1.3,0.8,2.5,0.8
		c1.8,0,3-0.6,3.8-1.7c0.7-1.1,1.2-2.3,1.5-3.7l5.9-35.5c1.2-0.4,2.6-0.7,4.2-1c1.5-0.3,3.2-0.5,5-0.5c4.4,0,7.5,0.8,9.3,2.4
		c1.8,1.6,2.7,4,2.6,7.3c0,0.4,0,0.8-0.1,1.3c0,0.5-0.1,0.9-0.2,1.3l-5.3,31.2c-0.2,1.2-0.3,2.3-0.4,3.5c-0.1,1.2-0.2,2.4-0.2,3.5
		c0,2.8,0.2,5,0.7,6.7c-1.3,0.4-2.8,0.7-4.5,1C275.8,85.3,274,85.5,272,85.5z M285.3,72.7c0-2.7,0.7-5,2.1-6.9
		c1.4-1.9,3.5-3.5,6.2-5c1.9,2.9,3.9,4.8,5.7,5.9c1.9,1.1,3.8,1.6,5.6,1.6c0.8,0,1.5-0.2,2.1-0.5c0.7-0.3,1-0.9,1-1.9
		c0-1.4-0.7-2.6-2-3.5c-1.4-1-3.3-2.3-5.7-4c-2.8-1.9-5.1-3.9-6.9-5.9c-1.8-2-2.7-4.6-2.7-7.9c0-1.9,0.4-3.8,1.2-5.9
		c0.8-2.1,2.1-4,4-5.8c1.9-1.8,4.4-3.3,7.5-4.5c3.1-1.2,7-1.8,11.6-1.8c2.7,0,5.4,0.3,8,0.9c2.6,0.6,4.9,1.5,6.9,2.7
		c2,1.2,3.6,2.6,4.8,4.2c1.2,1.6,1.8,3.4,1.8,5.3c0,2.6-1.1,4.9-3.3,6.9c-2.2,2-4.9,3.1-8,3.4c-1-2.6-2.3-4.4-3.8-5.5
		c-1.5-1.1-3.2-1.7-5-1.7c-0.7,0-1.3,0.2-1.9,0.6c-0.5,0.4-0.8,1-0.8,1.8c0,0.5,0.2,1,0.5,1.5c0.3,0.4,0.9,0.9,1.7,1.5
		s1.8,1.3,3.1,2c1.2,0.8,2.7,1.8,4.5,3c1.9,1.3,3.3,2.6,4.5,3.8c1.1,1.2,2,2.4,2.7,3.7c0.7,1.2,1.1,2.5,1.3,3.8
		c0.2,1.3,0.3,2.6,0.3,4c0,2-0.4,4-1.3,6.1c-0.9,2.1-2.3,3.9-4.2,5.6c-1.9,1.7-4.3,3.1-7.3,4.1c-2.9,1-6.4,1.6-10.5,1.6
		c-3.1,0-6.1-0.3-8.9-0.8c-2.9-0.5-5.4-1.3-7.7-2.5c-2.5-1.3-4.3-2.8-5.5-4.4C285.9,76.9,285.3,74.9,285.3,72.7z M343.2,79.1
		c2.1,2.1,4.7,3.8,7.9,5.1c3.2,1.2,6.9,1.9,11.1,1.9c3.3,0,6.8-0.5,10.3-1.4c3.6-0.9,6.4-2.3,8.6-4.1c1.2-0.9,2.1-2.1,3-3.4
		c0.8-1.4,1.2-3,1.2-4.8c0-2.6-0.8-4.5-2.5-5.9c-1.7-1.4-3.9-2.5-6.7-3.4c-1.5,2.4-3.1,4.2-4.9,5.3c-1.8,1.1-4,1.7-6.7,1.7
		c-2.1,0-3.8-0.7-5.1-2.1c-1.3-1.4-2.1-3.4-2.2-5.9h4.9c3.1,0,6.3-0.3,9.6-0.9c3.3-0.6,6.3-1.6,8.9-3.1c2.7-1.5,4.9-3.5,6.6-6
		c1.7-2.6,2.6-5.8,2.6-9.9c0-1.6-0.3-3.3-0.9-5.1c-0.6-1.8-1.7-3.4-3.1-5c-1.5-1.5-3.4-2.8-5.9-3.8c-2.5-1-5.6-1.5-9.4-1.5
		c-5.7,0-10.7,0.9-14.9,2.8c-4.2,1.9-7.7,4.5-10.5,7.7c-2.8,3.2-4.9,7-6.2,11.3c-1.4,4.3-2,8.8-2,13.6c0,3.4,0.5,6.6,1.6,9.5
		C339.5,74.5,341.1,77,343.2,79.1z M361.7,43.9c1.6-1.6,3.5-2.4,5.7-2.4c1.3,0,2.2,0.3,2.8,1c0.5,0.7,0.8,1.4,0.8,2.3
		c0,1.2-0.3,2.2-0.9,3c-0.6,0.9-1.4,1.5-2.4,2c-1,0.5-2.1,0.9-3.3,1.2c-1.2,0.3-2.4,0.4-3.6,0.4c-0.4,0-0.8,0-1.1,0s-0.8,0-1.3-0.1
		C359,48,360.1,45.5,361.7,43.9z M438.4,39.8c0,2.6-1.1,4.9-3.3,6.9c-2.2,2-4.9,3.1-8,3.4c-1-2.6-2.3-4.4-3.8-5.5
		c-1.5-1.1-3.2-1.7-5-1.7c-0.7,0-1.3,0.2-1.9,0.6c-0.5,0.4-0.8,1-0.8,1.8c0,0.5,0.2,1,0.5,1.5c0.3,0.4,0.9,0.9,1.7,1.5
		s1.8,1.3,3.1,2c1.2,0.8,2.7,1.8,4.5,3c1.9,1.3,3.3,2.6,4.5,3.8c1.1,1.2,2,2.4,2.7,3.7c0.7,1.2,1.1,2.5,1.3,3.8
		c0.2,1.3,0.3,2.6,0.3,4c0,2-0.4,4-1.3,6.1c-0.9,2.1-2.3,3.9-4.2,5.6c-1.9,1.7-4.3,3.1-7.3,4.1c-2.9,1-6.4,1.6-10.5,1.6
		c-3.1,0-6.1-0.3-8.9-0.8c-2.9-0.5-5.4-1.3-7.7-2.5c-2.5-1.3-4.3-2.8-5.5-4.4c-1.2-1.6-1.8-3.5-1.8-5.7c0-2.7,0.7-5,2.1-6.9
		c1.4-1.9,3.5-3.5,6.2-5c1.9,2.9,3.9,4.8,5.7,5.9c1.9,1.1,3.8,1.6,5.6,1.6c0.8,0,1.5-0.2,2.1-0.5c0.7-0.3,1-0.9,1-1.9
		c0-1.4-0.7-2.6-2-3.5c-1.4-1-3.3-2.3-5.7-4c-2.8-1.9-5.1-3.9-6.9-5.9c-1.8-2-2.7-4.6-2.7-7.9c0-1.9,0.4-3.8,1.2-5.9
		c0.8-2.1,2.1-4,4-5.8c1.9-1.8,4.4-3.3,7.5-4.5c3.1-1.2,7-1.8,11.6-1.8c2.7,0,5.4,0.3,8,0.9c2.6,0.6,4.9,1.5,6.9,2.7
		s3.6,2.6,4.8,4.2C437.8,36.1,438.4,37.9,438.4,39.8z M21.5,80.2c0.2,0.4,0.2,0.8,0.1,1.1c-0.1,0.3-0.4,0.5-0.5,0.6L9.5,88.8
		C9.4,88.9,9.1,89,8.8,89c0,0,0,0-0.1,0c-0.4,0-0.7-0.2-1-0.6c-0.2-0.4-0.2-0.8-0.1-1.1c0.1-0.3,0.4-0.5,0.5-0.6l11.6-6.9
		c0.1-0.1,0.4-0.2,0.8-0.2C21,79.6,21.3,79.8,21.5,80.2z M14.8,56.7c0.2,0,0.4,0,0.6-0.2c0.3-0.2,0.5-0.5,0.6-1c0-0.4-0.1-0.8-0.4-1
		c-0.3-0.2-0.6-0.2-0.7-0.2l0,0.6l0,0l0-0.6L1.3,53.4c-0.2,0-0.5,0-0.8,0.2c-0.3,0.2-0.6,0.5-0.6,1c0,0.4,0.1,0.8,0.4,1
		c0.3,0.2,0.6,0.2,0.7,0.2l13.4,0.9C14.7,56.7,14.7,56.7,14.8,56.7z M14.8,54.9L14.8,54.9l0,0.3L14.8,54.9z M13,23.8l10.4,8.6
		c0.1,0.1,0.4,0.3,0.7,0.3c0,0,0.1,0,0.1,0c0.3,0,0.7-0.2,0.9-0.5c0.3-0.3,0.4-0.7,0.2-1.1c-0.1-0.3-0.3-0.5-0.5-0.6l-0.4,0.5v0
		l0.4-0.5l-10.4-8.6c-0.1-0.1-0.4-0.3-0.7-0.3c-0.4,0-0.8,0.1-1,0.5c-0.3,0.3-0.4,0.7-0.2,1.1C12.7,23.5,12.9,23.7,13,23.8z
		 M24.6,30.9L24.6,30.9l-0.2,0.3L24.6,30.9z M40.8,4.3c0-0.1-0.1-0.4,0-0.8c0.1-0.4,0.4-0.7,0.8-0.8c0.4-0.1,0.8,0,1.1,0.2
		c0.3,0.2,0.4,0.5,0.4,0.7L47,16.5c0,0.1,0.1,0.4,0,0.8c-0.1,0.4-0.4,0.7-0.8,0.8c-0.1,0-0.3,0.1-0.4,0.1c-0.3,0-0.5-0.1-0.7-0.3
		c-0.3-0.2-0.4-0.5-0.4-0.7L40.8,4.3z M71.2,16.6c-0.1-0.3-0.1-0.6,0-0.8l2.9-13.1c0-0.1,0.1-0.5,0.4-0.7c0.3-0.3,0.7-0.4,1.1-0.3
		c0.4,0.1,0.7,0.4,0.9,0.7c0.1,0.3,0.1,0.6,0,0.8l-2.9,13.2c0,0.1-0.1,0.5-0.4,0.7c-0.2,0.2-0.5,0.3-0.8,0.3c-0.1,0-0.2,0-0.3,0
		C71.6,17.2,71.3,16.9,71.2,16.6z M83.4,30.8l-5.1,4.3c-4.6-5-10.6-8.1-18.1-9.1c-8.8-1.2-16.5,0.8-23.1,6.1
		c-6.6,5.3-10.5,12.2-11.7,20.9c-1.2,8.7,0.6,16.4,5.4,23.2C33.7,80,37.1,83,41.2,85c-2.5,3.2-4.4,7-5.8,11.1c0,0.1-0.1,0.2-0.1,0.4
		c-17.3,4.6-30,19.8-30,37.7c0,21.6,18.4,39.2,41,39.2c22.6,0,41-17.5,41-39.2c0-21.2-17.6-38.4-39.6-39.2c1-1.9,2.3-3.7,3.8-5.4
		c0.5-0.5,1-1,1.5-1.4c8,0.7,15.1-1.3,21.3-6.2c6.6-5.2,10.6-12.2,11.8-20.9c1-7.1,0-13.6-3.1-19.4l5.7-4.7c1.7-1.5,2-4,0.5-5.8
		C87.8,29.6,85.2,29.4,83.4,30.8z M71,130.5c0,9.4-6.5,18.4-15.6,18.4c-3.9,0-5.3-2.6-5.4-4.5c-1.8,2-4.4,3.2-8.1,3.2
		c-4.2,0-7.5-3.5-7.5-8.1c0-1,0.1-2,0.4-3c2.2-7.8,8.3-11.3,13.3-11.3c3.2,0,5.2,1.4,6,3.8l1-3.5h4.6c-5.1,18-5.1,16.5-5.1,18
		c0,1.3,1.3,1.5,2.3,1.5c2.4,0,7.2-3.6,7.2-14.4c0-8-6.7-12.8-15.6-12.8c-4.8,0-15.7,3.4-17.9,15.8c-0.3,1.6-0.4,3.1-0.4,4.5
		c0,9.7,6.5,16,18,16c5.8,0,10.9-0.9,14.1-2.7l2.6,3.5c-3.8,2.6-11.7,4.1-16.9,4.1c-14.7,0-28.6-6.5-28.6-21.5c0-1,0.1-2,0.2-3
		c1.1-9.8,8.3-24.4,27.8-24.4C59.6,109.8,71,115.4,71,130.5z M66.5,58.8c-0.6,4.2-2.1,7.7-4.6,10.3c-2.5,2.7-5.2,3.8-8.2,3.4
		c-3-0.4-5.3-2.2-6.8-5.5c-1.6-3.2-2.1-6.9-1.5-11.2c0.6-4.2,2.1-7.7,4.6-10.4c2.6-2.7,5.3-3.8,8.3-3.4c2.9,0.4,5.2,2.2,6.8,5.5
		C66.6,50.8,67,54.6,66.5,58.8z M149.6,101H100v15.9h11.1v34.9H100v15.8h46.9v-15.8h-11.8v-7.7h15c14.1,0,29.4-5.8,29.4-22.1
		C179.6,104.1,163.3,101,149.6,101z M143.4,128.5c-2.6,0-6.9-0.1-8.3-0.1v-11.5h10.1c5.4,0,8.1,1.7,8.1,5.3
		C153.4,126.1,151.6,128.5,143.4,128.5z M239.6,135.6h20v32.1h-74.7v-15.8H196v-34.9h-11.1V101h47v15.9h-11.9v34.9h19.5V135.6z
		 M323.4,101h-22.2l-22.6,50.8h-10.8v15.8h38.1v-15.8h-6.7l1.2-3.8h17.2l1.1,3.8H311v15.8h45.8v-15.8H346L323.4,101z M304,137.1
		l4.7-14.6h0.4l5,14.6H304z M397.6,101H432v15.9h-9.1l-19.4,23.3v11.6h11.9v15.8h-47.8v-15.8h11.9v-11.6l-19.6-23.3h-8.8V101h40.5
		v15.9h-4.7l7.3,11.9h0.3l8.3-11.9h-4.9V101z M51.1,134.3c0,0.7-0.1,1.3-0.3,2.1c-0.9,3-3.1,5.4-5,5.4c-1.5,0-2.4-1.4-2.4-3.4
		c0-0.6,0.1-1.3,0.3-2c0.9-3.1,3.2-5.5,5.1-5.5C50.3,130.9,51.1,132.3,51.1,134.3z"/>
</g>
</svg>
