<svg xmlns="http://www.w3.org/2000/svg" viewBox="0 0 172.75 68.36"><defs><style>.cls-1{fill:#fff;}</style></defs><title>gap_white-logo</title><g id="Layer_2" data-name="Layer 2"><g id="Layer_1-2" data-name="Layer 1"><path class="cls-1" d="M43.58,24.43a3.6,3.6,0,0,0,.87,2.33,2.64,2.64,0,0,0,2,.82,4.92,4.92,0,0,0,2.63-.66A6.15,6.15,0,0,0,51,24.84a7.47,7.47,0,0,1,2.63,1.33,2.87,2.87,0,0,1,1,2.33,3.62,3.62,0,0,1-.48,1.9A5,5,0,0,1,53,31.75a8.75,8.75,0,0,1-3.39,1.6,16.12,16.12,0,0,1-4.07.55,12.06,12.06,0,0,1-4.39-.73,8.72,8.72,0,0,1-3.11-2,8.11,8.11,0,0,1-1.85-3,10.93,10.93,0,0,1-.62-3.73,17.77,17.77,0,0,1,.8-5.38,12.35,12.35,0,0,1,2.45-4.44,11.85,11.85,0,0,1,4.12-3,14.08,14.08,0,0,1,5.86-1.12,9.94,9.94,0,0,1,3.71.59,6.59,6.59,0,0,1,2.33,1.51,5.48,5.48,0,0,1,1.24,2,6.13,6.13,0,0,1,.37,2,6.77,6.77,0,0,1-1,3.89,7.49,7.49,0,0,1-2.61,2.38,11.32,11.32,0,0,1-3.52,1.21,21.72,21.72,0,0,1-3.77.34ZM44,20.18a3.82,3.82,0,0,0,.53,0H45a6.6,6.6,0,0,0,1.42-.16,5.23,5.23,0,0,0,1.3-.46,2.66,2.66,0,0,0,.94-.8A2,2,0,0,0,49,17.62a1.23,1.23,0,0,0-1.42-1.28,3,3,0,0,0-2.26,1A5.51,5.51,0,0,0,44,20.18ZM58.5,11.35a13.84,13.84,0,0,1,1.58-.27A17.55,17.55,0,0,1,62,11a6.82,6.82,0,0,1,3.2.62,2.5,2.5,0,0,1,1.37,1.67A9.11,9.11,0,0,1,69,11.42a7.9,7.9,0,0,1,4-.89,6,6,0,0,1,2.52.48,4.53,4.53,0,0,1,1.72,1.33,5.72,5.72,0,0,1,1,1.94,8.31,8.31,0,0,1,.32,2.33,13,13,0,0,1-.14,1.92q-.14.92-.32,1.88L76.8,27.77l-.18,1.28a9,9,0,0,0-.09,1.28q0,.64,0,1.24a5.41,5.41,0,0,0,.23,1.19,11.19,11.19,0,0,1-1.92.66,10.41,10.41,0,0,1-2.61.3,5.53,5.53,0,0,1-3.66-.94,3.51,3.51,0,0,1-1-2.86q0-.23,0-.75t.18-1.26l1.37-8.14a4.69,4.69,0,0,0,.07-.5c0-.18,0-.35,0-.5a1,1,0,0,0-1.24-1.19,1.76,1.76,0,0,0-1.42.59A3,3,0,0,0,66,19.67L63.72,33.22H54.79Zm22.79,0a13.51,13.51,0,0,1,1.62-.27,18.86,18.86,0,0,1,2-.09,7.4,7.4,0,0,1,2.36.32,3.41,3.41,0,0,1,1.44.87,3.15,3.15,0,0,1,.71,1.24,4.91,4.91,0,0,1,.21,1.42,4,4,0,0,1,0,.43q0,.21-.07.43L87.46,27.77l-.18,1.28a9,9,0,0,0-.09,1.28q0,.64,0,1.24a5.41,5.41,0,0,0,.23,1.19,11.19,11.19,0,0,1-1.92.66,10.41,10.41,0,0,1-2.61.3,5.53,5.53,0,0,1-3.66-.94,3.51,3.51,0,0,1-1-2.86,9,9,0,0,1,.09-1.28ZM82,4.94a5.33,5.33,0,0,1,.41-2.2,4.53,4.53,0,0,1,1.1-1.53A4.4,4.4,0,0,1,85.13.3,6.18,6.18,0,0,1,87.05,0a4.54,4.54,0,0,1,1.74.32,3.7,3.7,0,0,1,1.28.85,3.84,3.84,0,0,1,.78,1.19,3.4,3.4,0,0,1,.27,1.3,5.32,5.32,0,0,1-.41,2.2,4.53,4.53,0,0,1-1.1,1.53A4.39,4.39,0,0,1,88,8.3a6.17,6.17,0,0,1-1.92.3,4.48,4.48,0,0,1-1.76-.32A4,4,0,0,1,83,7.44a3.33,3.33,0,0,1-.78-1.19A3.65,3.65,0,0,1,82,4.94Zm10.75,6.18a16.27,16.27,0,0,1,1.65-.41,10.06,10.06,0,0,1,2-.18,5.63,5.63,0,0,1,3.68.94,3.48,3.48,0,0,1,1,2.86c0,.15,0,.32,0,.5a4.71,4.71,0,0,1-.07.5L99.36,25a4.37,4.37,0,0,0-.07.5c0,.18,0,.35,0,.5a1.37,1.37,0,0,0,.25.87,1.2,1.2,0,0,0,1,.32,1.64,1.64,0,0,0,1.49-.66,3.81,3.81,0,0,0,.57-1.44l2.33-14a16.27,16.27,0,0,1,1.65-.41,10.06,10.06,0,0,1,2-.18,5.63,5.63,0,0,1,3.68.94,3.48,3.48,0,0,1,1,2.86c0,.15,0,.32,0,.5a4.68,4.68,0,0,1-.07.5L111,27.64q-.09.69-.16,1.4t-.07,1.4a10.4,10.4,0,0,0,.27,2.65,18,18,0,0,1-1.76.41,11.69,11.69,0,0,1-2.13.18,7.52,7.52,0,0,1-3-.46,3.5,3.5,0,0,1-1.67-2q-.46.5-1,1a5.19,5.19,0,0,1-1.21.85,7.31,7.31,0,0,1-1.72.59,11.37,11.37,0,0,1-2.47.23,5.89,5.89,0,0,1-4.53-1.62A6,6,0,0,1,90.16,28a17,17,0,0,1,.14-2.1q.14-1.1.32-2.06ZM115.69,24A7.35,7.35,0,0,0,118,26.31a4.44,4.44,0,0,0,2.22.64,2,2,0,0,0,.85-.18.73.73,0,0,0,.39-.73,1.68,1.68,0,0,0-.8-1.4l-2.26-1.58a15,15,0,0,1-2.7-2.33,4.52,4.52,0,0,1-1.05-3.11,6.72,6.72,0,0,1,.46-2.33A6,6,0,0,1,116.63,13a9,9,0,0,1,3-1.76,12.76,12.76,0,0,1,4.58-.71,13.46,13.46,0,0,1,3.13.37,9.79,9.79,0,0,1,2.7,1.05,6.19,6.19,0,0,1,1.88,1.65,3.47,3.47,0,0,1,.71,2.1,3.55,3.55,0,0,1-1.3,2.72,5.37,5.37,0,0,1-3.13,1.35,4.75,4.75,0,0,0-1.51-2.17,3.29,3.29,0,0,0-2-.66,1.15,1.15,0,0,0-.73.25.85.85,0,0,0-.32.71.88.88,0,0,0,.21.57,3.65,3.65,0,0,0,.69.59q.48.34,1.21.8T127.5,21a11.66,11.66,0,0,1,1.76,1.49A6.84,6.84,0,0,1,130.31,24a5.13,5.13,0,0,1,.53,1.49A8.81,8.81,0,0,1,131,27a6,6,0,0,1-.53,2.4,6.43,6.43,0,0,1-1.65,2.22,8.47,8.47,0,0,1-2.86,1.62,12.32,12.32,0,0,1-4.12.62,20.35,20.35,0,0,1-3.52-.3,10.5,10.5,0,0,1-3-1,6.47,6.47,0,0,1-2.17-1.72,3.64,3.64,0,0,1-.71-2.26,4.29,4.29,0,0,1,.85-2.7A7.61,7.61,0,0,1,115.69,24Zm25.07.46a3.6,3.6,0,0,0,.87,2.33,2.64,2.64,0,0,0,2,.82,4.92,4.92,0,0,0,2.63-.66,6.15,6.15,0,0,0,1.94-2.08,7.47,7.47,0,0,1,2.63,1.33,2.87,2.87,0,0,1,1,2.33,3.62,3.62,0,0,1-.48,1.9,5,5,0,0,1-1.17,1.35,8.75,8.75,0,0,1-3.39,1.6,16.12,16.12,0,0,1-4.07.55,12.06,12.06,0,0,1-4.39-.73,8.72,8.72,0,0,1-3.11-2,8.11,8.11,0,0,1-1.85-3,10.93,10.93,0,0,1-.62-3.73,17.77,17.77,0,0,1,.8-5.38A12.35,12.35,0,0,1,136,14.66a11.85,11.85,0,0,1,4.12-3A14.08,14.08,0,0,1,146,10.52a9.94,9.94,0,0,1,3.71.59A6.59,6.59,0,0,1,152,12.63a5.48,5.48,0,0,1,1.24,2,6.13,6.13,0,0,1,.37,2,6.77,6.77,0,0,1-1,3.89A7.49,7.49,0,0,1,150,22.88a11.32,11.32,0,0,1-3.52,1.21,21.72,21.72,0,0,1-3.77.34Zm.46-4.26a3.82,3.82,0,0,0,.53,0h.43a6.6,6.6,0,0,0,1.42-.16,5.23,5.23,0,0,0,1.3-.46,2.66,2.66,0,0,0,.94-.8,2,2,0,0,0,.37-1.19,1.23,1.23,0,0,0-1.42-1.28,3,3,0,0,0-2.26,1A5.51,5.51,0,0,0,141.22,20.18ZM155.87,24a7.35,7.35,0,0,0,2.26,2.33,4.44,4.44,0,0,0,2.22.64,2,2,0,0,0,.85-.18.73.73,0,0,0,.39-.73,1.68,1.68,0,0,0-.8-1.4l-2.26-1.58a15,15,0,0,1-2.7-2.33,4.52,4.52,0,0,1-1.05-3.11,6.72,6.72,0,0,1,.46-2.33A6,6,0,0,1,156.8,13a9,9,0,0,1,3-1.76,12.76,12.76,0,0,1,4.58-.71,13.46,13.46,0,0,1,3.13.37,9.79,9.79,0,0,1,2.7,1.05A6.19,6.19,0,0,1,172,13.59a3.47,3.47,0,0,1,.71,2.1,3.55,3.55,0,0,1-1.3,2.72,5.37,5.37,0,0,1-3.13,1.35,4.75,4.75,0,0,0-1.51-2.17,3.29,3.29,0,0,0-2-.66,1.15,1.15,0,0,0-.73.25.85.85,0,0,0-.32.71.88.88,0,0,0,.21.57,3.65,3.65,0,0,0,.69.59q.48.34,1.21.8T167.67,21a11.66,11.66,0,0,1,1.76,1.49A6.84,6.84,0,0,1,170.48,24a5.13,5.13,0,0,1,.53,1.49,8.81,8.81,0,0,1,.14,1.58,6,6,0,0,1-.53,2.4A6.43,6.43,0,0,1,169,31.66a8.47,8.47,0,0,1-2.86,1.62,12.32,12.32,0,0,1-4.12.62,20.35,20.35,0,0,1-3.52-.3,10.5,10.5,0,0,1-3-1,6.47,6.47,0,0,1-2.17-1.72,3.64,3.64,0,0,1-.71-2.26,4.29,4.29,0,0,1,.85-2.7A7.61,7.61,0,0,1,155.87,24ZM8.11,31.36a.51.51,0,0,0-.3.08L3.26,34.17a.51.51,0,0,0-.21.22.47.47,0,0,0,0,.45.45.45,0,0,0,.38.24h0A.51.51,0,0,0,3.74,35L8.3,32.26A.51.51,0,0,0,8.51,32a.49.49,0,0,0-.41-.68Zm-2.28-9a.47.47,0,0,0,.24-.06.49.49,0,0,0,.05-.79.5.5,0,0,0-.29-.1l0,.23h0l0-.23L.53,21a.51.51,0,0,0-.3.06.49.49,0,0,0-.05.79.51.51,0,0,0,.29.1l5.3.35Zm0-.72h0v0Zm4-9.61-.15.18L9.83,12,5.73,8.64a.51.51,0,0,0-.28-.13.49.49,0,0,0-.5.61.51.51,0,0,0,.18.25l4.1,3.37a.51.51,0,0,0,.28.13h0a.47.47,0,0,0,.36-.18.46.46,0,0,0,.1-.43A.5.5,0,0,0,9.83,12Zm-.23.28.08-.1h0ZM17,1.43a.51.51,0,0,0-.16-.26.49.49,0,0,0-.76.23.51.51,0,0,0,0,.31l1.51,5.09a.5.5,0,0,0,.16.26.44.44,0,0,0,.29.1l.15,0a.46.46,0,0,0,.32-.31.5.5,0,0,0,0-.31ZM30.1.94a.49.49,0,0,0-.77-.17.5.5,0,0,0-.14.27L28,6.23a.5.5,0,0,0,0,.31.46.46,0,0,0,.34.28h.12a.44.44,0,0,0,.31-.12A.51.51,0,0,0,29,6.43l1.15-5.18A.5.5,0,0,0,30.1.94ZM59.17,56.78h-5.9v3H57.9v6.24H39.4V59.81h4.37V46.06H39.4V39.78H58.94c5.38,0,11.81,1.23,11.81,8.3C70.75,54.5,64.74,56.78,59.17,56.78ZM57.26,46.06h-4v4.52c.52,0,2.24,0,3.25,0,3.21,0,3.92-.93,3.92-2.47S59.39,46.06,57.26,46.06Zm45,7.36V66.05H72.85V59.81h4.37V46.06H72.85V39.78H91.38v6.28H86.71V59.81h7.7V53.42Zm38.31,6.39v6.24H122.55V59.81h3l-.45-1.49h-6.76l-.49,1.49h2.65v6.24h-15V59.81h4.26l8.89-20h8.74l8.93,20ZM119.78,54h4l-2-5.76h-.15ZM170.2,39.78v6.28h-3.59L159,55.25v4.56h4.67v6.24H144.79V59.81h4.67V55.25l-7.74-9.19h-3.48V39.78h16v6.28h-1.87l2.88,4.67h.11l3.29-4.67h-1.94V39.78Zm-135-27.44a1.61,1.61,0,0,0-2.27-.2l-2,1.69a11.45,11.45,0,0,0-7.12-3.6,11.44,11.44,0,0,0-9.08,2.39A12.31,12.31,0,0,0,10,20.86,12.25,12.25,0,0,0,12.19,30a11.07,11.07,0,0,0,4,3.5,14.75,14.75,0,0,0-2.3,4.4.91.91,0,0,0,0,.15A15.56,15.56,0,0,0,2.1,52.91c0,8.53,7.23,15.44,16.16,15.44s16.16-6.91,16.16-15.44c0-8.35-6.94-15.13-15.6-15.42a10.93,10.93,0,0,1,1.5-2.13,7.1,7.1,0,0,1,.6-.58,11.43,11.43,0,0,0,8.37-2.43,12.21,12.21,0,0,0,4.64-8.24,12.42,12.42,0,0,0-1.22-7.63L35,14.61A1.61,1.61,0,0,0,35.15,12.34ZM28,51.4c0,3.71-2.58,7.25-6.17,7.25a1.93,1.93,0,0,1-2.14-1.78,4.14,4.14,0,0,1-3.2,1.25,3,3,0,0,1-2.94-3.2,4.1,4.1,0,0,1,.17-1.18,5.66,5.66,0,0,1,5.23-4.46,2.48,2.48,0,0,1,2.36,1.83l.39-1h1.81c-2,6-2,6.16-2,6.74s.51.41.92.41c1,0,2.82-1.49,2.82-5.78,0-3.15-2.65-5.07-6.17-5.07A7.39,7.39,0,0,0,12,52.58a9.1,9.1,0,0,0-.17,1.75c0,3.83,2.55,6.28,7.08,6.28a11.36,11.36,0,0,0,5.54-1.09l1,1.4c-1.49,1-4.62,1.61-6.67,1.61C13,62.53,7.51,60,7.51,54.08a10,10,0,0,1,.07-1.18c.43-3.88,3.27-9.63,11-9.63C23.48,43.27,28,45.48,28,51.4ZM26.19,23.16a7.29,7.29,0,0,1-1.82,4.08,3.62,3.62,0,0,1-3.24,1.34,3.47,3.47,0,0,1-2.69-2.15,7.5,7.5,0,0,1-.58-4.4,7.41,7.41,0,0,1,1.81-4.09,3.69,3.69,0,0,1,3.25-1.35,3.48,3.48,0,0,1,2.67,2.16A7.52,7.52,0,0,1,26.19,23.16ZM19.24,51.57c-.75,0-1.69,1-2,2.17a2.46,2.46,0,0,0-.12.79c0,.79.39,1.35,1,1.35.77,0,1.61-1,2-2.14a3.73,3.73,0,0,0,.12-.84C20.15,52.13,19.82,51.57,19.24,51.57Z"/></g></g></svg>